<svg width="81" height="50" viewBox="0 0 81 50" fill="none" xmlns="http://www.w3.org/2000/svg">
<rect x="0.547607" y="0.5" width="84" height="49" rx="14.5" fill="#FAFAFA" stroke="#CFCFCF"/>
<g clip-path="url(#clip0_1_242)">
<path d="M47.5194 12.0125C47.4662 11.9531 45.5522 12.0359 43.8866 13.8438C42.2209 15.65 42.4772 17.7219 42.5147 17.775C42.5522 17.8281 44.8897 17.9109 46.3819 15.8094C47.8741 13.7078 47.5725 12.0734 47.5194 12.0125ZM52.6975 30.3453C52.6225 30.1953 49.0647 28.4172 49.3959 24.9984C49.7272 21.5781 52.0131 20.6406 52.0491 20.5391C52.085 20.4375 51.1162 19.3047 50.0897 18.7313C49.336 18.327 48.5018 18.0953 47.6475 18.0531C47.4787 18.0484 46.8928 17.9047 45.6881 18.2344C44.8944 18.4516 43.1053 19.1547 42.6131 19.1828C42.1194 19.2109 40.6506 18.3672 39.0709 18.1438C38.06 17.9484 36.9881 18.3484 36.2209 18.6563C35.4553 18.9625 33.9991 19.8344 32.9803 22.1516C31.9616 24.4672 32.4944 28.1359 32.8756 29.2766C33.2569 30.4156 33.8522 32.2828 34.8647 33.6453C35.7647 35.1828 36.9584 36.25 37.4569 36.6125C37.9553 36.975 39.3616 37.2156 40.3366 36.7172C41.1209 36.2359 42.5366 35.9594 43.0959 35.9797C43.6537 36 44.7537 36.2203 45.8803 36.8219C46.7725 37.1297 47.6162 37.0016 48.4616 36.6578C49.3069 36.3125 50.5303 35.0031 51.9584 32.3484C52.5006 31.1141 52.7475 30.4469 52.6975 30.3453Z" fill="black"/>
<path d="M47.5194 12.0125C47.4662 11.9531 45.5522 12.0359 43.8866 13.8438C42.2209 15.65 42.4772 17.7219 42.5147 17.775C42.5522 17.8281 44.8897 17.9109 46.3819 15.8094C47.8741 13.7078 47.5725 12.0734 47.5194 12.0125ZM52.6975 30.3453C52.6225 30.1953 49.0647 28.4172 49.3959 24.9984C49.7272 21.5781 52.0131 20.6406 52.0491 20.5391C52.085 20.4375 51.1162 19.3047 50.0897 18.7313C49.336 18.327 48.5018 18.0953 47.6475 18.0531C47.4787 18.0484 46.8928 17.9047 45.6881 18.2344C44.8944 18.4516 43.1053 19.1547 42.6131 19.1828C42.1194 19.2109 40.6506 18.3672 39.0709 18.1438C38.06 17.9484 36.9881 18.3484 36.2209 18.6563C35.4553 18.9625 33.9991 19.8344 32.9803 22.1516C31.9616 24.4672 32.4944 28.1359 32.8756 29.2766C33.2569 30.4156 33.8522 32.2828 34.8647 33.6453C35.7647 35.1828 36.9584 36.25 37.4569 36.6125C37.9553 36.975 39.3616 37.2156 40.3366 36.7172C41.1209 36.2359 42.5366 35.9594 43.0959 35.9797C43.6537 36 44.7537 36.2203 45.8803 36.8219C46.7725 37.1297 47.6162 37.0016 48.4616 36.6578C49.3069 36.3125 50.5303 35.0031 51.9584 32.3484C52.5006 31.1141 52.7475 30.4469 52.6975 30.3453Z" fill="black"/>
</g>
<defs>
<clipPath id="clip0_1_242">
<rect width="25" height="25" fill="white" transform="translate(30.0476 12)"/>
</clipPath>
</defs>
</svg>
