<svg width="20" height="21" viewBox="0 0 20 21" fill="none" xmlns="http://www.w3.org/2000/svg">
<path d="M10.0914 0.586426C4.88897 0.586426 0.666748 5.00756 0.666748 10.455C0.666748 15.9025 4.88897 20.3236 10.0914 20.3236H14.8037V18.3499H10.0914C6.00107 18.3499 2.55167 14.738 2.55167 10.455C2.55167 6.17206 6.00107 2.56015 10.0914 2.56015C14.1816 2.56015 17.631 6.17206 17.631 10.455V11.8662C17.631 12.6459 16.9619 13.4156 16.2173 13.4156C15.4728 13.4156 14.8037 12.6459 14.8037 11.8662V10.455C14.8037 7.7313 12.6925 5.52073 10.0914 5.52073C7.49016 5.52073 5.37905 7.7313 5.37905 10.455C5.37905 13.1788 7.49016 15.3893 10.0914 15.3893C11.3919 15.3893 12.5794 14.8367 13.4277 13.9386C14.0403 14.817 15.0958 15.3893 16.2173 15.3893C18.074 15.3893 19.516 13.8104 19.516 11.8662V10.455C19.516 5.00756 15.2937 0.586426 10.0914 0.586426ZM10.0914 13.4156C8.52687 13.4156 7.26397 12.0932 7.26397 10.455C7.26397 8.81684 8.52687 7.49445 10.0914 7.49445C11.6558 7.49445 12.9187 8.81684 12.9187 10.455C12.9187 12.0932 11.6558 13.4156 10.0914 13.4156Z" fill="#27B4EF"/>
</svg>
