<svg width="18" height="19" viewBox="0 0 18 19" fill="none" xmlns="http://www.w3.org/2000/svg">
<path d="M9.30295 0.22168C8.37094 0.22168 7.45986 0.511071 6.68493 1.05326C5.91 1.59545 5.30601 2.36608 4.94935 3.26771C4.59268 4.16933 4.49936 5.16146 4.68119 6.11862C4.86301 7.07578 5.31182 7.95499 5.97084 8.64506C6.62987 9.33514 7.46952 9.80508 8.38362 9.99547C9.29772 10.1859 10.2452 10.0881 11.1063 9.71468C11.9673 9.34122 12.7033 8.70878 13.2211 7.89733C13.7389 7.08589 14.0152 6.13189 14.0152 5.15598C14.0152 3.84732 13.5188 2.59226 12.635 1.6669C11.7513 0.741542 10.5527 0.22168 9.30295 0.22168ZM9.30295 8.11656C8.74374 8.11656 8.1971 7.94293 7.73214 7.61762C7.26718 7.2923 6.90478 6.82992 6.69078 6.28895C6.47679 5.74797 6.4208 5.1527 6.52989 4.5784C6.63899 4.0041 6.90827 3.47658 7.30368 3.06253C7.6991 2.64849 8.20289 2.36652 8.75135 2.25229C9.29981 2.13805 9.8683 2.19668 10.3849 2.42076C10.9016 2.64484 11.3432 3.02431 11.6538 3.51117C11.9645 3.99804 12.1303 4.57043 12.1303 5.15598C12.1303 5.94118 11.8324 6.69421 11.3022 7.24943C10.772 7.80465 10.0528 8.11656 9.30295 8.11656ZM17.7851 18.972V17.9852C17.7851 16.153 17.09 14.396 15.8528 13.1005C14.6156 11.805 12.9376 11.0771 11.1879 11.0771H7.41802C5.66833 11.0771 3.9903 11.805 2.75308 13.1005C1.51586 14.396 0.820801 16.153 0.820801 17.9852V18.972H2.70572V17.9852C2.70572 16.6765 3.20219 15.4215 4.08592 14.4961C4.96965 13.5707 6.16824 13.0509 7.41802 13.0509H11.1879C12.4376 13.0509 13.6362 13.5707 14.52 14.4961C15.4037 15.4215 15.9002 16.6765 15.9002 17.9852V18.972H17.7851Z" fill="#27B4EF"/>
</svg>
