<svg width="85" height="51" viewBox="0 0 85 51" fill="none" xmlns="http://www.w3.org/2000/svg">
<rect x="0.5" y="0.537109" width="84" height="49" rx="14.5" fill="#FAFAFA" stroke="#CFCFCF"/>
<path d="M52.714 22.4972H51.8749V22.4539H42.4999V26.6206H48.3869C47.528 29.0461 45.2202 30.7873 42.4999 30.7873C39.0484 30.7873 36.2499 27.9888 36.2499 24.5373C36.2499 21.0857 39.0484 18.2873 42.4999 18.2873C44.0931 18.2873 45.5426 18.8883 46.6463 19.8701L49.5926 16.9237C47.7322 15.1899 45.2437 14.1206 42.4999 14.1206C36.7473 14.1206 32.0833 18.7847 32.0833 24.5373C32.0833 30.2899 36.7473 34.9539 42.4999 34.9539C48.2525 34.9539 52.9166 30.2899 52.9166 24.5373C52.9166 23.8388 52.8447 23.1571 52.714 22.4972Z" fill="#FFC107"/>
<path d="M33.2844 19.6888L36.7068 22.1987C37.6329 19.906 39.8756 18.2873 42.5 18.2873C44.0933 18.2873 45.5428 18.8883 46.6464 19.8701L49.5928 16.9237C47.7323 15.1899 45.2438 14.1206 42.5 14.1206C38.499 14.1206 35.0292 16.3795 33.2844 19.6888Z" fill="#FF3D00"/>
<path d="M42.5 34.9536C45.1906 34.9536 47.6354 33.924 49.4839 32.2495L46.2599 29.5214C45.1789 30.3434 43.8581 30.7881 42.5 30.787C39.7906 30.787 37.4901 29.0594 36.6234 26.6484L33.2266 29.2656C34.9505 32.6391 38.4516 34.9536 42.5 34.9536Z" fill="#4CAF50"/>
<path d="M52.7141 22.4968H51.875V22.4536H42.5V26.6203H48.387C47.9761 27.7747 47.2361 28.7834 46.2583 29.5218L46.2599 29.5208L49.4839 32.2489C49.2557 32.4562 52.9167 29.7453 52.9167 24.5369C52.9167 23.8385 52.8448 23.1567 52.7141 22.4968Z" fill="#1976D2"/>
</svg>
