<svg width="310" height="228" viewBox="0 0 310 228" fill="none" xmlns="http://www.w3.org/2000/svg">
<g clip-path="url(#clip0_1_252)">
<path opacity="0.1" d="M102.968 227.065C118.037 227.065 130.252 225.038 130.252 222.538C130.252 220.038 118.037 218.011 102.968 218.011C87.8987 218.011 75.6829 220.038 75.6829 222.538C75.6829 225.038 87.8987 227.065 102.968 227.065Z" fill="#27B4EF"/>
<path opacity="0.1" d="M251.284 227.192C270.087 227.192 285.331 225.166 285.331 222.665C285.331 220.165 270.087 218.138 251.284 218.138C232.48 218.138 217.237 220.165 217.237 222.665C217.237 225.166 232.48 227.192 251.284 227.192Z" fill="#27B4EF"/>
<path opacity="0.1" d="M3.97086 98.5991H32.3897V138.614H6.05138C5.98137 139.025 5.91417 139.439 5.84137 139.852H32.3897V172.124C32.3421 172.109 32.3001 172.092 32.2553 172.074C31.5048 171.768 30.76 171.444 30.0151 171.097L29.5391 170.874C28.7924 170.509 28.0457 170.124 27.299 169.717C27.0386 169.575 26.7781 169.428 26.5205 169.277C22.3751 166.878 18.6093 163.839 15.3535 160.263C15.2583 160.168 15.1687 160.067 15.0735 159.974C14.6199 159.465 14.1746 158.95 13.7434 158.424L13.2674 157.845C12.7578 157.2 12.2649 156.538 11.7861 155.866C11.7161 155.768 11.6489 155.67 11.5761 155.577C9.62871 152.788 8.01177 149.767 6.75982 146.581C6.72062 146.485 6.68701 146.381 6.65061 146.292C6.26606 145.269 5.92537 144.238 5.62855 143.196C5.49975 142.759 5.37654 142.328 5.27013 141.874C5.23093 141.741 5.19733 141.611 5.16653 141.481C3.57604 135.068 3.38843 128.406 3.38843 121.79C3.38843 121.018 3.38843 120.243 3.38843 119.476C3.38843 116.8 3.41923 114.107 3.46403 111.417C3.46403 110.72 3.49203 110.025 3.50603 109.325C3.54524 107.549 3.60124 105.773 3.67404 103.997C3.69084 103.502 3.71325 103.011 3.73845 102.519C3.73845 102.235 3.75245 101.952 3.78045 101.668C3.84765 100.638 3.90366 99.6174 3.97086 98.5991Z" fill="#27B4EF"/>
<path opacity="0.1" d="M32.3897 54.0451H16.8013C19.3353 49.9478 22.1039 46.0105 25.0925 42.2544C27.4083 39.3154 29.8528 36.4516 32.3897 33.6919V54.0451Z" fill="#27B4EF"/>
<path opacity="0.1" d="M32.3897 55.2832V97.3608H4.06055C4.06055 97.2393 4.08015 97.1149 4.08855 96.9934C4.11375 96.6608 4.13895 96.3281 4.16695 95.9983C4.19775 95.6107 4.23136 95.2202 4.26776 94.8412C4.30416 94.4623 4.34336 93.9995 4.38537 93.58C4.42737 93.1606 4.46657 92.7353 4.51417 92.3159C4.56177 91.8964 4.60378 91.477 4.65418 91.0604C4.70458 90.6439 4.74939 90.2216 4.80259 89.805C4.84459 89.4579 4.88939 89.1136 4.93419 88.7665C4.9986 88.2776 5.0658 87.7859 5.13861 87.2999C5.13861 87.2276 5.15821 87.1524 5.16941 87.0829C5.68049 83.5254 6.37687 79.9988 7.25552 76.5187C8.17526 72.868 9.34973 69.291 10.7697 65.8156C12.2789 62.18 14.0459 58.6644 16.0564 55.2977L32.3897 55.2832Z" fill="#27B4EF"/>
<path opacity="0.1" d="M39.1746 98.5966V138.615H99.8736V98.5966H39.1746ZM39.1746 139.85V174.215C39.5218 174.291 39.8662 174.363 40.2078 174.424C40.6726 174.516 41.1347 174.6 41.6079 174.672C41.6975 174.687 41.7899 174.701 41.8879 174.71C42.0727 174.742 42.2631 174.768 42.4479 174.794C42.9156 174.86 43.3804 174.915 43.848 174.959C44.0692 174.982 44.2932 175.002 44.5173 175.02L45.0577 175.063C45.3517 175.086 45.6429 175.103 45.9313 175.112C46.1105 175.112 46.2898 175.129 46.4746 175.135C46.6146 175.135 46.7546 175.135 46.9002 175.135C47.0458 175.135 47.253 175.135 47.4294 175.135C47.6702 175.135 47.9111 175.135 48.1491 175.135H48.4711C48.7119 175.135 48.9527 175.135 49.1907 175.112H49.2075C49.3727 175.112 49.5407 175.112 49.7088 175.089C49.7554 175.092 49.8021 175.092 49.8488 175.089C49.9888 175.089 50.1288 175.089 50.2632 175.069H50.3612L51.2992 174.993C51.6073 174.965 51.9181 174.927 52.2317 174.892L52.8701 174.814C55.4675 174.438 58.036 173.874 60.5566 173.125C66.2185 171.493 71.7572 169.211 77.4163 167.539C84.7331 165.384 92.8172 164.325 99.8876 166.96V139.85H39.1746ZM99.8736 54.0457V0.770356C93.2281 0.695977 86.6006 1.49894 80.1521 3.15975C64.782 7.14882 50.9912 15.801 39.1746 26.8512V54.0428H42.2211V55.278H39.1746V97.3614H99.8736V55.2809H54.7294V54.0457H99.8736ZM177.838 36.0501C174.036 35.9112 170.256 34.6673 166.837 32.7466C160.298 29.0728 155.076 23.4002 149.24 18.6127C137.116 8.64146 122.079 2.62459 106.653 1.13195V54.0457H193.304L193.519 53.8114L177.838 36.0501ZM185.732 34.6037L194.102 44.0918V32.1159C191.299 32.4746 188.843 33.328 185.743 34.5921L185.732 34.6037ZM194.102 182.749V139.85H176.267C176.22 139.668 176.172 139.482 176.116 139.297C176.169 139.482 176.214 139.668 176.265 139.85H106.664V170.874C107.325 171.38 107.977 171.913 108.624 172.454C109.321 173.032 110.01 173.643 110.702 174.241L111.399 174.837C111.732 175.127 112.068 175.416 112.407 175.688C113.079 176.251 113.758 176.806 114.443 177.354C114.782 177.643 115.129 177.904 115.473 178.175C120.941 182.494 126.709 186.392 132.731 189.836C134.08 190.607 135.442 191.361 136.816 192.095C137.732 192.578 138.653 193.059 139.577 193.524C140.966 194.224 142.366 194.899 143.777 195.549C156.789 201.583 170.547 205.723 184.66 207.852C187.794 208.33 190.94 208.706 194.099 208.98V182.746H194.379L194.102 182.749ZM106.664 55.2809V97.3614H194.113V55.2809H106.664ZM106.664 98.5966V138.615H194.113V98.5966H106.664ZM200.9 32.0639V45.4225L211.583 33.3135C208.044 32.7234 204.483 32.302 200.9 32.0494V32.0639ZM200.9 98.611V138.615H285.955V98.5966L200.9 98.611ZM285.644 185.925L285.944 139.85H200.9V209.44C206.379 209.678 211.866 209.61 217.337 209.238H217.433C220.046 209.068 222.647 208.821 225.237 208.497H225.295C239.109 206.836 252.616 203.113 265.394 197.444L285.644 185.925ZM302.356 105.186C302.037 104.408 301.703 103.636 301.365 102.872C300.732 101.426 300.062 100.02 299.374 98.6139H292.737V138.615H309.516C309.507 127.287 306.732 115.716 302.364 105.172L302.356 105.186ZM292.737 139.864V179.495C297.464 174.814 301.457 169.46 304.333 163.339C307.791 155.968 309.373 147.987 309.502 139.858L292.737 139.864ZM292.737 86.9505V97.3643H298.752C296.932 93.7794 294.927 90.2983 292.746 86.936L292.737 86.9505ZM235.054 39.9147C234.612 39.7412 234.169 39.5647 233.724 39.394C229.028 37.6027 224.23 36.113 219.356 34.9335L203.009 53.4672L202.695 53.8114L202.905 54.0486H261.087C252.984 48.2864 244.248 43.5372 235.062 39.9003L235.054 39.9147ZM262.792 55.2954H202.093L200.9 56.4235V97.3614H211.356H211.373H285.966V77.5317C279.219 69.1011 271.43 61.6205 262.801 55.2809L262.792 55.2954Z" fill="#27B4EF"/>
<path opacity="0.1" d="M32.3897 76.5073V97.361H4.06055C4.06055 97.2395 4.08015 97.1151 4.08855 96.9936C4.11375 96.6609 4.13895 96.3283 4.16695 95.9985C4.19775 95.6109 4.23136 95.2204 4.26776 94.8414C4.30416 94.4625 4.34336 93.9996 4.38537 93.5802C4.42737 93.1607 4.46657 92.7355 4.51417 92.3161C4.56177 91.8966 4.60378 91.4772 4.65418 91.0606C4.70458 90.6441 4.74939 90.2217 4.80259 89.8052C4.84459 89.4581 4.88939 89.1138 4.93419 88.7667C4.9986 88.2778 5.0658 87.7861 5.13861 87.3001C5.13861 87.2278 5.15821 87.1526 5.16941 87.0831C5.68049 83.5255 6.37687 79.999 7.25552 76.5189L32.3897 76.5073Z" fill="#27B4EF"/>
<path opacity="0.1" d="M3.97086 98.5991H32.3897V138.614H6.05138C5.98137 139.025 5.91417 139.439 5.84137 139.852H32.3897V172.124C32.3421 172.109 32.3001 172.092 32.2553 172.074C31.5048 171.768 30.76 171.444 30.0151 171.097L29.5391 170.874C28.7924 170.509 28.0457 170.124 27.299 169.717C27.0386 169.575 26.7781 169.428 26.5205 169.277C22.3751 166.878 18.6093 163.839 15.3535 160.263C15.2583 160.168 15.1687 160.067 15.0735 159.974C14.6199 159.465 14.1746 158.95 13.7434 158.424L13.2674 157.845C12.7578 157.2 12.2649 156.538 11.7861 155.866C11.7161 155.768 11.6489 155.67 11.5761 155.577C9.62871 152.788 8.01177 149.767 6.75982 146.581C6.72062 146.485 6.68701 146.381 6.65061 146.292C6.26606 145.269 5.92537 144.238 5.62855 143.196C5.49975 142.759 5.37654 142.328 5.27013 141.874C5.23093 141.741 5.19733 141.611 5.16653 141.481C3.57604 135.068 3.38843 128.406 3.38843 121.79C3.38843 121.018 3.38843 120.243 3.38843 119.476C3.38843 116.8 3.41923 114.107 3.46403 111.417C3.46403 110.72 3.49203 110.025 3.50603 109.325C3.54524 107.549 3.60124 105.773 3.67404 103.997C3.69084 103.502 3.71325 103.011 3.73845 102.519C3.73845 102.235 3.75245 101.952 3.78045 101.668C3.84765 100.638 3.90366 99.6174 3.97086 98.5991Z" fill="#27B4EF"/>
<path opacity="0.1" d="M60.5426 61.3059V97.3609H39.1746V61.3059H42.2211V49.0986H54.7266V61.3059H60.5426Z" fill="#27B4EF"/>
<path opacity="0.1" d="M60.5424 98.5962H39.1772V138.611H60.5424V98.5962Z" fill="#27B4EF"/>
<path opacity="0.1" d="M39.1746 139.852H60.5426V173.118C58.022 173.867 55.4535 174.43 52.8561 174.805L52.2177 174.886C51.9041 174.923 51.5933 174.955 51.2852 174.987C50.9772 175.019 50.658 175.042 50.3472 175.062H50.2492C50.1148 175.062 49.9692 175.08 49.8376 175.083H49.6947C49.5267 175.083 49.3587 175.1 49.1907 175.106C48.9527 175.12 48.7147 175.123 48.4711 175.126C48.3675 175.126 48.2695 175.126 48.1659 175.126C47.9251 175.126 47.687 175.126 47.4462 175.126H46.917C46.7742 175.126 46.637 175.126 46.4886 175.126L45.9481 175.106C45.6681 175.106 45.3657 175.074 45.0745 175.054L44.5369 175.013L43.8676 174.95C43.3972 174.906 42.9296 174.851 42.4675 174.785L41.9075 174.704L41.6275 174.663C41.1599 174.588 40.6978 174.507 40.2274 174.414C39.883 174.354 39.5414 174.278 39.1942 174.206L39.1746 139.852Z" fill="#27B4EF"/>
<path opacity="0.1" d="M194.113 57.0479H176.494V97.358H194.113V57.0479Z" fill="#27B4EF"/>
<path opacity="0.1" d="M194.116 98.5962V138.614H106.664V121.353H153.244V131.536H176.494V98.5962H194.116Z" fill="#27B4EF"/>
<path opacity="0.1" d="M194.393 182.757H194.113V209.009C190.958 208.733 187.812 208.358 184.676 207.883C170.557 205.748 156.792 201.599 143.777 195.555C140.019 193.807 136.338 191.9 132.733 189.833C126.712 186.387 120.943 182.489 115.473 178.172C114.099 177.085 112.743 175.972 111.404 174.834C110.478 174.044 109.556 173.234 108.624 172.448C107.977 171.907 107.325 171.374 106.664 170.865V139.852H176.262C176.214 139.667 176.167 139.482 176.116 139.3C176.169 139.482 176.22 139.667 176.267 139.852H194.113V182.74C194.208 182.743 194.3 182.751 194.393 182.757Z" fill="#27B4EF"/>
<path opacity="0.1" d="M240.063 54.0456H228.583V50.3602H233.729V39.3823C234.176 39.5501 234.62 39.7227 235.062 39.9001V50.3602H240.063V54.0456Z" fill="#27B4EF"/>
<path opacity="0.1" d="M267.723 97.3608H211.362C211.362 97.3608 211.362 97.3608 211.381 97.3753L211.356 97.3608H200.9V57.0507H203.863V86.8458H217.402V69.2001H228.586V55.2832H240.066V69.2117H251.25V86.8573H267.723V97.3608Z" fill="#27B4EF"/>
<path opacity="0.1" d="M200.9 98.5962V138.614H267.723V98.5962H200.9ZM285.863 185.719L285.955 154.044H267.723V139.87H200.9V209.44C206.379 209.677 211.866 209.61 217.337 209.237H217.433C220.046 209.067 222.647 208.821 225.237 208.497H225.295C239.109 206.836 252.616 203.113 265.394 197.444" fill="#27B4EF"/>
<path opacity="0.1" d="M293.924 139.852H309.513C309.376 147.978 307.796 155.959 304.341 163.329C301.465 169.453 297.469 174.808 292.748 179.485V154.029H293.924V139.852Z" fill="#27B4EF"/>
<path opacity="0.1" d="M309.521 138.614H293.924V105.171H302.364C306.732 115.715 309.507 127.286 309.521 138.614Z" fill="#27B4EF"/>
<path opacity="0.1" d="M194.116 68.2544H184.676V80.8927H194.116V68.2544Z" fill="#27B4EF"/>
<path opacity="0.1" d="M194.116 94.4512H184.676V97.3613H194.116V94.4512Z" fill="#27B4EF"/>
<path opacity="0.1" d="M194.116 98.5962H184.676V107.086H194.116V98.5962Z" fill="#27B4EF"/>
<path opacity="0.1" d="M194.116 120.647H184.676V133.286H194.116V120.647Z" fill="#27B4EF"/>
<path opacity="0.1" d="M194.116 146.844H184.676V159.483H194.116V146.844Z" fill="#27B4EF"/>
<path opacity="0.1" d="M194.113 182.74C194.208 182.74 194.3 182.74 194.393 182.757H194.113V185.693H184.676V173.041H194.113V182.74Z" fill="#27B4EF"/>
<path opacity="0.1" d="M194.113 199.231V208.994C190.958 208.719 187.812 208.344 184.676 207.869V199.231H194.113Z" fill="#27B4EF"/>
<path opacity="0.1" d="M147.118 137.686H106.664V138.614H147.118V137.686Z" fill="#27B4EF"/>
<path opacity="0.1" d="M147.118 139.85H106.664V143.408H147.118V139.85Z" fill="#27B4EF"/>
<path opacity="0.1" d="M147.118 155.071H106.664V160.793H147.118V155.071Z" fill="#27B4EF"/>
<path opacity="0.1" d="M147.115 172.456V178.178H115.473C114.099 177.094 112.742 175.981 111.402 174.84C110.475 174.05 109.556 173.24 108.621 172.456H147.115Z" fill="#27B4EF"/>
<path opacity="0.1" d="M147.115 189.839V195.555H143.774C140.02 193.806 136.34 191.897 132.733 189.83L147.115 189.839Z" fill="#27B4EF"/>
<path opacity="0.1" d="M225.304 102.476H217.34V110.702H225.304V102.476Z" fill="#27B4EF"/>
<path opacity="0.1" d="M52.8755 64.144H44.9119V72.371H52.8755V64.144Z" fill="#27B4EF"/>
<path opacity="0.1" d="M52.8755 83.2534H44.9119V91.4803H52.8755V83.2534Z" fill="#27B4EF"/>
<path opacity="0.1" d="M52.8755 102.362H44.9119V110.589H52.8755V102.362Z" fill="#27B4EF"/>
<path opacity="0.1" d="M52.8755 121.469H44.9119V129.696H52.8755V121.469Z" fill="#27B4EF"/>
<path opacity="0.1" d="M52.8755 140.578H44.9119V148.805H52.8755V140.578Z" fill="#27B4EF"/>
<path opacity="0.1" d="M52.8755 159.688H44.9119V167.914H52.8755V159.688Z" fill="#27B4EF"/>
<path opacity="0.1" d="M255.705 102.476H247.741V110.702H255.705V102.476Z" fill="#27B4EF"/>
<path opacity="0.1" d="M225.304 122.768H217.34V130.995H225.304V122.768Z" fill="#27B4EF"/>
<path opacity="0.1" d="M255.705 122.768H247.741V130.995H255.705V122.768Z" fill="#27B4EF"/>
<path opacity="0.1" d="M225.304 143.058H217.34V151.285H225.304V143.058Z" fill="#27B4EF"/>
<path opacity="0.1" d="M255.705 143.058H247.741V151.285H255.705V143.058Z" fill="#27B4EF"/>
<path opacity="0.1" d="M225.304 163.35H217.34V171.577H225.304V163.35Z" fill="#27B4EF"/>
<path opacity="0.1" d="M255.705 163.35H247.741V171.577H255.705V163.35Z" fill="#27B4EF"/>
<path opacity="0.1" d="M225.304 183.643H217.34V191.869H225.304V183.643Z" fill="#27B4EF"/>
<path opacity="0.1" d="M255.705 183.643H247.741V191.869H255.705V183.643Z" fill="#27B4EF"/>
<path opacity="0.1" d="M217.34 209.237V203.932H225.301V208.482L217.34 209.237Z" fill="#27B4EF"/>
<path opacity="0.1" d="M5.13574 87.0771V91.7836H32.3897V87.0771H5.13574ZM7.8519 91.4886H5.62857V87.3664H7.8687L7.8519 91.4886ZM10.5652 91.4886H8.32512V87.3664H10.5652V91.4886ZM13.273 91.4886H11.0329V87.3664H13.273V91.4886ZM15.9864 91.4886H13.749V87.3664H15.9892L15.9864 91.4886ZM18.6969 91.4886H16.4568V87.3664H18.6969V91.4886ZM21.4103 91.4886H19.1701V87.3664H21.4103V91.4886ZM24.1236 91.4886H21.8835V87.3664H24.1236V91.4886ZM26.8342 91.4886H24.594V87.3664H26.8342V91.4886ZM29.5447 91.4886H27.3046V87.3664H29.5447V91.4886ZM32.2553 91.4886H30.0151V87.3664H32.2553V91.4886Z" fill="#27B4EF"/>
<path opacity="0.1" d="M5.13574 100.771V105.478H32.3897V100.771H5.13574ZM7.8519 105.18H5.62857V101.069H7.8687L7.8519 105.18ZM10.5652 105.18H8.32512V101.069H10.5652V105.18ZM13.273 105.18H11.0329V101.069H13.273V105.18ZM15.9864 105.18H13.749V101.069H15.9892L15.9864 105.18ZM18.6969 105.18H16.4568V101.069H18.6969V105.18ZM21.4103 105.18H19.1701V101.069H21.4103V105.18ZM24.1236 105.18H21.8835V101.069H24.1236V105.18ZM26.8342 105.18H24.594V101.069H26.8342V105.18ZM29.5447 105.18H27.3046V101.069H29.5447V105.18ZM32.2553 105.18H30.0151V101.069H32.2553V105.18Z" fill="#27B4EF"/>
<path opacity="0.1" d="M5.13574 114.472V119.187H32.3897V114.472H5.13574ZM7.8519 118.88H5.62857V114.767H7.8687L7.8519 118.88ZM10.5652 118.88H8.32512V114.767H10.5652V118.88ZM13.273 118.88H11.0329V114.767H13.273V118.88ZM15.9864 118.88H13.749V114.767H15.9892L15.9864 118.88ZM18.6969 118.88H16.4568V114.767H18.6969V118.88ZM21.4103 118.88H19.1701V114.767H21.4103V118.88ZM24.1236 118.88H21.8835V114.767H24.1236V118.88ZM26.8342 118.88H24.594V114.767H26.8342V118.88ZM29.5447 118.88H27.3046V114.767H29.5447V118.88ZM32.2553 118.88H30.0151V114.767H32.2553V118.88Z" fill="#27B4EF"/>
<path opacity="0.1" d="M5.13574 128.171V132.872H32.3897V128.171H5.13574ZM7.8519 132.58H5.62857V128.464H7.8687L7.8519 132.58ZM10.5652 132.58H8.32512V128.464H10.5652V132.58ZM13.273 132.58H11.0329V128.464H13.273V132.58ZM15.9864 132.58H13.749V128.464H15.9892L15.9864 132.58ZM18.6969 132.58H16.4568V128.464H18.6969V132.58ZM21.4103 132.58H19.1701V128.464H21.4103V132.58ZM24.1236 132.58H21.8835V128.464H24.1236V132.58ZM26.8342 132.58H24.594V128.464H26.8342V132.58ZM29.5447 132.58H27.3046V128.464H29.5447V132.58ZM32.2553 132.58H30.0151V128.464H32.2553V132.58Z" fill="#27B4EF"/>
<path opacity="0.1" d="M5.25342 141.869C5.36262 142.311 5.48583 142.754 5.61464 143.191V142.164H7.85476V146.277H6.6563C6.6927 146.373 6.7291 146.477 6.7655 146.566H32.3897V141.869H5.25342ZM10.5737 146.277H8.33359V142.164H10.5737V146.277ZM13.2815 146.277H11.0413V142.164H13.2815V146.277ZM15.9948 146.277H13.7491V142.164H15.9892L15.9948 146.277ZM18.7054 146.277H16.4652V142.164H18.7054V146.277ZM21.4187 146.277H19.1786V142.164H21.4187V146.277ZM24.1321 146.277H21.892V142.164H24.1321V146.277ZM26.8426 146.277H24.6025V142.164H26.8426V146.277ZM29.5532 146.277H27.3131V142.164H29.5532V146.277ZM32.2637 146.277H30.0236V142.164H32.2637V146.277Z" fill="#27B4EF"/>
<path opacity="0.1" d="M11.5818 155.568C11.6518 155.661 11.719 155.765 11.7918 155.858H13.2731V157.833C13.4327 158.03 13.5895 158.227 13.7519 158.412V155.846H15.992V159.974H15.0848C15.1744 160.069 15.2612 160.171 15.3648 160.263H32.3982V155.568H11.5818ZM18.697 159.974H16.4569V155.863H18.697V159.974ZM21.4103 159.974H19.1702V155.863H21.4103V159.974ZM24.1237 159.974H21.8836V155.863H24.1237V159.974ZM26.8342 159.974H24.5941V155.863H26.8342V159.974ZM29.5448 159.974H27.3047V155.863H29.5448V159.974ZM32.2553 159.974H30.0152V155.863H32.2553V159.974Z" fill="#27B4EF"/>
<path opacity="0.1" d="M26.5317 169.266C26.7866 169.416 27.047 169.555 27.3102 169.705V169.561H29.5503V170.862L30.0263 171.091V169.561H32.2665V172.063C32.3094 172.085 32.3545 172.102 32.4009 172.115V169.266H26.5317Z" fill="#27B4EF"/>
<path opacity="0.1" d="M211.362 97.361H211.379H211.362ZM194.113 182.737H194.393H194.113ZM176.116 139.297C176.169 139.482 176.214 139.667 176.265 139.849C176.22 139.667 176.172 139.482 176.116 139.297ZM211.362 97.3523H211.379H211.362ZM42.2322 54.0366V55.2718H54.7405V54.0366H42.2322ZM194.113 182.737H194.393H194.113ZM176.116 139.297C176.169 139.482 176.214 139.667 176.265 139.849C176.22 139.667 176.172 139.482 176.116 139.297ZM211.362 97.3523H211.379H211.362ZM194.113 182.728H194.393H194.113ZM176.116 139.297C176.169 139.482 176.214 139.667 176.265 139.849C176.22 139.667 176.172 139.482 176.116 139.297Z" fill="#27B4EF"/>
<path d="M129.351 110.595C129.351 110.595 128.247 110.436 128.247 108.776C128.247 107.115 127.458 104.014 127.458 104.014C127.458 104 126.775 98.6137 125.831 97.7574C124.887 96.9012 123.675 91.8736 123.675 91.8736C123.675 91.8736 123.468 89.1458 123.045 88.5586C122.622 87.9713 122.051 86.5337 121.208 84.4827C120.365 82.4318 116.851 81.0114 116.851 81.0114C116.851 81.0114 110.497 77.2046 108.697 75.9636C108.533 75.8617 108.38 75.7424 108.24 75.6078C107.927 75.1826 106.56 75.1739 106.56 75.1739C106.417 74.2425 106.28 73.1721 106.235 72.2031C106.235 72.0989 106.235 71.9948 106.221 71.8907C108.229 70.6647 109.741 68.7317 110.48 66.4466C110.514 66.3366 110.542 66.2209 110.573 66.111C110.693 66.0701 110.804 66.0036 110.898 65.916C110.992 65.8283 111.067 65.7213 111.119 65.6019C111.281 65.2287 111.284 64.7919 111.486 64.4448C111.721 64.034 112.169 63.8142 112.522 63.5047C113.412 62.7236 113.642 61.4074 113.6 60.2098C113.572 59.2408 113.421 58.263 113.479 57.2998L113.496 57.0568C113.513 56.9121 113.533 56.7675 113.558 56.6286C113.695 55.9113 113.995 55.2344 114.163 54.5227C114.331 53.8111 114.347 53.0098 113.955 52.3966C113.381 51.497 112.186 51.3176 111.136 51.225C109.946 51.1209 108.882 51.2569 108.12 50.2357C107.763 49.702 107.362 49.2016 106.921 48.7402C106.765 48.5898 105.241 47.6294 105.241 47.5657C103.755 46.8544 102.069 46.7209 100.495 47.1897C99.7054 47.4269 98.9606 47.8145 98.1598 48.0083C96.4321 48.4307 94.4439 47.9736 92.9767 48.9947C92.159 49.5733 91.669 50.4932 91.2098 51.3899C90.8364 52.1285 90.4575 52.8662 90.0729 53.6029C89.4541 54.8149 88.824 56.0472 88.5636 57.3894C88.5089 57.6815 88.4752 57.9774 88.4628 58.2746V58.2891C88.4628 58.3961 88.4628 58.5031 88.4628 58.6102V58.7461C88.4628 58.8474 88.4628 58.9457 88.4796 59.0354C88.4964 59.1251 88.4936 59.154 88.502 59.2147C88.5104 59.2755 88.5244 59.4114 88.5412 59.504C88.558 59.5966 88.5916 59.7586 88.6252 59.8859C88.6392 59.9408 88.6588 59.9929 88.6756 60.045C88.7036 60.1433 88.7372 60.2388 88.7736 60.3342C88.7932 60.3834 88.8128 60.4355 88.8352 60.4847C88.8772 60.5859 88.9276 60.6843 88.978 60.7739C89.0004 60.8144 89.0172 60.852 89.0396 60.8896C89.1178 61.0242 89.2038 61.1536 89.2973 61.2773C89.8965 62.0496 90.7785 62.5414 91.431 63.2646C91.431 63.2935 91.431 63.3224 91.431 63.3485C91.431 63.4294 91.431 63.5075 91.431 63.5885C91.4656 65.2014 91.8811 66.7811 92.6415 68.1902C93.4018 69.5993 94.4839 70.7952 95.7936 71.6737C95.7936 71.7836 95.8076 71.8965 95.8132 72.0064C95.8678 72.865 95.8575 73.7268 95.7824 74.5838C95.6684 74.4451 95.5257 74.3346 95.3648 74.2605C95.2038 74.1864 95.0289 74.1505 94.8528 74.1557C94.7325 74.1496 94.6119 74.1603 94.4943 74.1875L94.4691 74.1672V74.1933C93.8531 74.3495 93.0943 75.0119 92.369 76.8951C92.369 76.8951 90.1625 79.4638 88.4824 79.3568C86.8023 79.2498 82.5489 82.0297 82.5489 82.0297C82.5489 82.0297 78.399 84.8125 77.5086 87.6474C77.0109 89.2549 76.4142 90.8279 75.7221 92.3567L70.5922 103.277L69.6458 111.94C69.6458 111.94 70.1694 115.794 70.0658 116.381C69.9622 116.968 72.2191 122.265 72.2191 122.265C72.2191 122.265 79.6759 135.8 82.7225 136.494L82.9409 136.335C83.0712 136.405 83.2095 136.459 83.3525 136.494L83.9798 136.037C84.0174 136.546 84.0015 137.058 83.9322 137.564C83.5121 138.901 84.089 147.622 84.8226 149.332C85.5562 151.041 85.2958 173.457 85.2958 173.457L85.1922 175.436C85.1922 175.436 85.1922 175.499 85.2174 175.609L85.1922 176.078L85.2678 176.118C85.3463 176.746 85.3208 177.383 85.1922 178.002C84.929 178.869 84.8226 181.323 84.8226 181.323C84.8226 181.323 82.7253 195.173 83.7193 197.956C84.7134 200.739 85.5591 203.787 85.5591 203.787C85.5591 203.787 86.6091 207.259 85.6095 207.852C84.6098 208.445 81.7676 209.44 82.3529 210.886C82.8849 212.223 84.9038 215.804 85.2034 216.327L85.1782 216.602L84.7666 221.21C84.8333 221.819 84.993 222.412 85.2398 222.969C85.6907 223.973 86.5671 225.014 88.2332 224.901C88.5132 224.881 88.838 224.846 89.1516 224.803C92.201 224.381 95.956 222.975 95.956 222.975C95.7611 222.847 95.5824 222.694 95.424 222.521C95.2741 222.371 95.1554 222.191 95.075 221.992C94.9946 221.793 94.9542 221.579 94.9564 221.364C95.0012 220.525 93.4807 216.527 93.1027 215.543C93.0439 215.402 93.0131 215.321 93.0131 215.321C93.0131 215.321 96.4797 211.578 95.9028 208.26C95.9028 208.26 92.0666 205.945 93.3295 204.676C94.5924 203.406 96.8493 199.758 96.8493 199.758C96.8493 199.758 96.9529 186.119 96.8493 184.082C96.7412 182.669 96.8061 181.247 97.0425 179.85C97.0845 179.639 97.1349 179.434 97.1881 179.231C98.9346 179.5 100.698 179.639 102.464 179.645C103.108 179.645 103.763 179.645 104.424 179.604C104.424 179.797 104.432 180.005 104.449 180.229C104.595 183.608 104.866 189.532 105.087 191.733C105.401 194.889 107.134 203.394 107.134 203.394C107.134 203.394 103.827 205.587 107.711 210.99C107.711 210.99 107.711 212.949 107.453 213.232C107.178 214.159 106.957 215.102 106.79 216.055C106.627 217.074 106.56 218.104 106.823 218.639C107.453 219.917 111.234 219.813 111.234 219.813L111.326 219.796C112.04 219.72 112.761 219.791 113.448 220.005C114.135 220.219 114.774 220.571 115.328 221.043C116.764 222.234 122.216 221.711 125.167 221.332C126.324 221.181 127.097 221.043 127.097 221.043C127.134 220.907 127.147 220.766 127.136 220.626C127.105 219.877 126.537 218.234 122.684 216.767C122.684 216.767 119.06 214.25 119.111 212.058H119.035H118.615C118.92 212.04 119.116 212.058 119.116 212.058C119.116 212.058 117.696 206.706 118.276 206.272C118.856 205.838 117.12 199.908 117.12 199.908C117.12 199.908 116.126 189.957 116.072 189.26C116.075 188.662 116.162 188.067 116.333 187.496L116.072 182.04C116.072 182.04 116.022 180.226 116.072 179.636C116.064 179.124 116.024 178.613 115.952 178.106C115.927 177.903 115.902 177.692 115.874 177.484C117.232 177.128 118.114 176.798 118.114 176.798L117.957 157.808C119.111 155.493 119.323 150.417 119.318 146.815C119.318 144.501 119.217 142.789 119.217 142.789L120.793 140.13C120.793 140.13 121.157 136.948 120.581 136.251C120.326 135.936 120.441 135.609 120.651 135.34C120.76 135.25 120.875 135.169 120.995 135.097C120.995 135.097 120.978 135.071 120.959 135.033C121.069 134.938 121.186 134.852 121.309 134.776C121.309 134.776 120.749 133.879 121.25 133.5C121.72 133.83 122.14 134.079 122.46 134.281C122.437 134.492 122.415 134.614 122.415 134.614L122.549 134.324C122.857 134.504 123.045 134.614 123.045 134.614C123.045 134.614 125.514 129.531 125.461 128.782C125.408 128.033 127.141 124.877 127.141 124.877C127.141 124.877 127.351 123.219 128.298 122.525C129.244 121.831 129.031 116.8 129.031 116.8C129.031 116.8 129.295 114.179 129.925 113.109C130.555 112.039 129.351 110.595 129.351 110.595ZM82.0952 108.365L82.1429 109.577C81.8628 109.111 81.6612 108.776 81.6612 108.776L82.0952 108.365Z" fill="url(#paint0_linear_1_252)"/>
<path d="M123.179 132.418L122.574 135.079C122.574 135.079 117.73 132.525 116.857 129.279C115.983 126.034 118.318 124.801 118.318 124.801L122.832 126.777L123.179 132.418Z" fill="white"/>
<path opacity="0.1" d="M123.179 132.418L122.574 135.079C122.574 135.079 117.73 132.525 116.857 129.279C115.983 126.034 118.318 124.801 118.318 124.801L122.832 126.777L123.179 132.418Z" fill="black"/>
<path d="M95.9925 222.992C95.9925 222.992 91.5123 224.693 88.4321 224.907C86.7968 225.02 85.9372 223.985 85.4947 222.987C85.253 222.432 85.0971 221.841 85.0327 221.236L85.4331 216.651L85.646 214.21L92.1899 212.454L93.1168 215.382L93.2036 215.604C93.576 216.582 95.0685 220.56 95.0237 221.39C95.0218 221.602 95.0616 221.813 95.1405 222.009C95.2194 222.206 95.3359 222.384 95.4829 222.532C95.6332 222.707 95.8044 222.862 95.9925 222.992Z" fill="white"/>
<path d="M126.595 220.661C126.607 220.8 126.593 220.94 126.556 221.074C126.556 221.074 116.974 222.726 115.014 221.074C114.461 220.592 113.817 220.234 113.123 220.024C112.428 219.814 111.699 219.756 110.982 219.854C110.982 219.854 107.274 219.958 106.656 218.697C106.398 218.167 106.465 217.14 106.625 216.128C106.788 215.179 107.005 214.241 107.274 213.319L107.423 213.198L108.305 212.466L118.632 212.15H118.71C118.66 214.332 122.216 216.834 122.216 216.834C125.993 218.28 126.551 219.914 126.595 220.661Z" fill="white"/>
<path opacity="0.1" d="M126.595 220.661C126.605 220.8 126.591 220.94 126.553 221.074C126.553 221.074 116.974 222.726 115.014 221.074C114.462 220.592 113.818 220.235 113.124 220.024C112.43 219.814 111.701 219.756 110.985 219.854C110.985 219.854 107.274 219.958 106.658 218.697C106.401 218.164 106.465 217.14 106.625 216.128C108.053 216.275 110.307 216.643 111.192 217.519C112.53 218.853 114.798 220.184 116.19 220.288C117.279 220.36 123.795 220.574 126.595 220.661Z" fill="black"/>
<path opacity="0.1" d="M95.9925 222.992C95.9925 222.992 91.5123 224.693 88.4321 224.907C86.7968 225.02 85.9372 223.985 85.4976 222.984C86.6372 223.38 88.2193 223.797 89.051 223.415C90.0366 222.963 93.5312 222.671 95.4913 222.547C95.6405 222.716 95.8088 222.865 95.9925 222.992Z" fill="black"/>
<path d="M102.64 85.9203C98.9439 84.4364 94.1893 79.5332 95.3765 77.2421C95.6402 76.664 95.7969 76.04 95.8385 75.4024C95.9149 74.5368 95.9262 73.6663 95.8721 72.7989C95.7889 71.3783 95.6234 69.9641 95.3765 68.564C95.3765 68.564 106.916 68.833 106.244 70.5889C106.048 71.1038 106.017 71.9976 106.07 72.9985C106.124 73.9994 106.264 75.1305 106.409 76.0879C106.611 77.4012 106.812 78.4021 106.812 78.4021C106.812 78.4021 106.107 79.4233 105.692 79.4782C105.278 79.5332 107.944 88.0349 102.64 85.9203Z" fill="#CF6F80"/>
<path opacity="0.1" d="M93.195 215.604L93.1082 215.703C89.6584 211.392 85.4862 216.764 85.4862 216.764L85.4246 216.651L85.6374 214.21L92.1813 212.454L93.1082 215.382L93.195 215.604Z" fill="black"/>
<path opacity="0.1" d="M118.713 212.454C118.713 212.454 116.193 212.399 114.849 213.626C113.505 214.852 107.008 213.892 107.288 213.626C107.371 213.494 107.421 213.343 107.434 213.186L108.316 212.454L118.643 212.139C118.682 212.332 118.713 212.454 118.713 212.454Z" fill="black"/>
<path d="M97.4877 178.606C97.3 179.086 97.1574 179.583 97.062 180.09C96.8285 181.48 96.7636 182.895 96.8688 184.302C96.9724 186.327 96.8688 199.897 96.8688 199.897C96.8688 199.897 94.6539 203.515 93.419 204.791C92.1842 206.067 95.9392 208.358 95.9392 208.358C96.4992 211.656 93.1054 215.381 93.1054 215.381C89.6556 211.071 85.4834 216.446 85.4834 216.446C85.4834 216.446 83.2153 212.396 82.6496 210.95C82.084 209.503 84.8646 208.503 85.8418 207.915C86.8191 207.328 85.7942 203.865 85.7942 203.865C85.7942 203.865 84.9682 200.831 83.9881 198.063C83.0081 195.294 85.069 181.513 85.069 181.513C85.069 181.513 85.1754 179.066 85.4302 178.213C85.5588 177.597 85.5843 176.963 85.5058 176.338C85.489 176.127 85.4694 175.951 85.4554 175.832C85.4414 175.713 85.4302 175.659 85.4302 175.659L85.4694 175.589L86.8695 172.893C86.8695 172.893 98.1597 176.908 97.4877 178.606Z" fill="#27B4EF"/>
<path d="M118.713 212.136C118.713 212.136 116.193 212.081 114.849 213.293C113.505 214.505 107.008 213.559 107.288 213.293C107.568 213.027 107.546 211.057 107.546 211.057C103.735 205.682 106.986 203.501 106.986 203.501C106.986 203.501 105.283 195.04 104.975 191.901C104.76 189.709 104.494 183.816 104.351 180.452C104.289 179.005 104.253 178.01 104.253 178.01L107.367 177.362L107.767 177.278L115.277 175.722C115.277 175.722 115.484 177.169 115.624 178.352C115.694 178.857 115.733 179.366 115.742 179.876C115.692 180.455 115.742 182.266 115.742 182.266L115.997 187.695C115.83 188.265 115.744 188.856 115.742 189.451C115.792 190.142 116.77 200.041 116.77 200.041C116.77 200.041 118.469 205.948 117.89 206.374C117.31 206.799 118.713 212.136 118.713 212.136Z" fill="#27B4EF"/>
<path opacity="0.1" d="M106.244 70.5889C106.048 71.1038 106.017 71.9976 106.07 72.9985C104.525 73.9601 102.748 74.4517 100.944 74.4169C99.1398 74.3821 97.3819 73.8223 95.8721 72.8018C95.789 71.3802 95.6235 69.9651 95.3765 68.564C95.3765 68.564 106.916 68.8272 106.244 70.5889Z" fill="black"/>
<path d="M110.705 64.1961C110.707 65.2385 110.548 66.2746 110.234 67.2653C109.533 69.485 108.094 71.3771 106.173 72.6072C104.251 73.8372 101.971 74.326 99.7344 73.987C97.498 73.6481 95.4496 72.5034 93.9511 70.7551C92.4527 69.0069 91.6007 66.7677 91.5458 64.4333C91.5458 64.3523 91.5458 64.2771 91.5458 64.1961C91.5241 62.8821 91.7558 61.5768 92.2276 60.3563C92.6993 59.1358 93.4015 58.0245 94.2933 57.0873C95.1851 56.1502 96.2486 55.4058 97.4218 54.8977C98.5951 54.3896 99.8545 54.1279 101.127 54.1279C102.399 54.1279 103.658 54.3896 104.831 54.8977C106.005 55.4058 107.068 56.1502 107.96 57.0873C108.852 58.0245 109.554 59.1358 110.026 60.3563C110.497 61.5768 110.729 62.8821 110.707 64.1961H110.705Z" fill="#CF6F80"/>
<path opacity="0.1" d="M102.64 85.9203C98.9439 84.4363 94.1893 79.5332 95.3765 77.2421C95.6402 76.664 95.7969 76.04 95.8385 75.4023L100.898 79.698L104.029 82.3507L106.409 76.0908C106.611 77.4041 106.812 78.405 106.812 78.405C106.812 78.405 106.107 79.4261 105.692 79.4811C105.278 79.536 107.944 88.0349 102.64 85.9203Z" fill="black"/>
<path d="M115.725 104.905L111.5 178.236L105.989 178.609L91.7195 136.089L94.0604 85.6079L94.5532 74.9424L100.898 80.3257L104.032 82.9784L106.482 76.5363L111.038 80.6382L115.725 104.905Z" fill="#27B4EF"/>
<path opacity="0.1" d="M97.4878 178.606C97.3001 179.085 97.1576 179.582 97.0622 180.09C93.0523 179.45 89.1579 178.194 85.5087 176.361L85.4331 176.321L85.4583 175.855L85.4723 175.612L86.8724 172.916C86.8724 172.916 98.1598 176.908 97.4878 178.606Z" fill="black"/>
<path opacity="0.1" d="M107.431 180.102C106.406 180.282 105.372 180.404 104.334 180.466C104.272 179.02 104.236 178.025 104.236 178.025L107.35 177.377L107.431 180.102Z" fill="black"/>
<path opacity="0.1" d="M115.607 178.366C113.617 178.901 110.542 179.503 107.789 179.127L107.75 177.293L115.26 175.736C115.26 175.736 115.467 177.168 115.607 178.366Z" fill="black"/>
<path opacity="0.1" d="M107.739 179.463C96.2586 181.488 85.744 175.682 85.744 175.682L85.8448 173.715C85.8448 173.715 86.1052 151.415 85.3828 149.705C84.6603 147.996 84.0975 139.326 84.5063 137.995C84.9151 136.665 83.0138 116.711 83.0138 116.711L82.7058 108.611L71.4324 103.893L76.4727 93.0395C77.1534 91.5178 77.7389 89.9525 78.2256 88.3533C79.102 85.5357 83.1706 82.7674 83.1706 82.7674C83.1706 82.7674 87.3429 80.002 88.9922 80.1061C90.6415 80.2102 92.8032 77.6589 92.8032 77.6589C94.3993 73.4557 95.8441 75.3591 95.8441 75.3591C95.8441 75.5587 95.8441 75.3591 95.7657 75.9811C95.2057 80.595 104.821 95.1743 104.959 95.4318L105.874 118.475L106.801 147.637L107.739 179.463Z" fill="black"/>
<path d="M107.431 179.462C95.9503 181.487 85.4329 175.682 85.4329 175.682L85.5365 173.715C85.5365 173.715 85.7969 151.414 85.0717 149.705C84.3465 147.995 83.7864 139.326 84.1981 137.995C84.6097 136.664 82.7056 116.71 82.7056 116.71L82.3948 108.611L71.1157 103.875L76.156 93.0219C76.8353 91.4995 77.4208 89.9344 77.9089 88.3357C78.7826 85.5182 82.854 82.7498 82.854 82.7498C82.854 82.7498 87.0262 79.9844 88.6727 80.0885C90.3192 80.1927 92.4837 77.6413 92.4837 77.6413C94.0826 73.4381 95.8439 75.3416 95.8439 75.3416C95.8439 75.5411 95.6759 75.6308 95.7655 75.9635C96.9976 80.4385 104.513 95.1567 104.65 95.4142L105.577 118.458L106.504 147.619L107.431 179.462Z" fill="white"/>
<path opacity="0.1" d="M104.337 96.0707C103.102 95.5385 96.5609 87.8236 96.5609 87.8236V86.0677C96.3229 85.4891 94.9088 85.842 93.7607 86.247L94.2536 75.5815L94.8136 76.0617C96.0401 80.5339 104.194 95.8133 104.337 96.0707Z" fill="black"/>
<path d="M104.648 95.4316C103.41 94.8993 96.869 87.1844 96.869 87.1844V85.4285C96.631 84.85 95.2169 85.2029 94.0688 85.6079L94.5645 74.9424L95.1245 75.4226C96.3538 79.8947 104.511 95.177 104.648 95.4316Z" fill="white"/>
<path opacity="0.1" d="M85.7438 133.908C85.8978 133.908 93.7271 133.057 93.7271 133.057C93.7271 133.057 98.4677 142.687 98.1569 145.03C97.8461 147.373 97.2833 149.447 95.3763 149.08C93.4694 148.713 85.1138 149.369 85.1138 149.369L85.7438 133.908Z" fill="black"/>
<path d="M85.433 133.268C85.587 133.268 93.4163 132.418 93.4163 132.418C93.4163 132.418 98.1541 142.051 97.8461 144.391C97.5381 146.731 96.9697 148.808 95.0656 148.441C93.1614 148.073 84.803 148.73 84.803 148.73L85.433 133.268Z" fill="white"/>
<path d="M91.333 128.747C91.333 128.747 98.5182 132.736 98.6722 133.954C98.8262 135.172 95.0152 133.422 94.1919 133.211C93.6501 133.076 93.0985 132.987 92.5426 132.944L87.0515 133.098L91.333 128.747Z" fill="#CF6F80"/>
<path opacity="0.1" d="M102.332 96.5684C102.75 96.5684 103.088 96.2187 103.088 95.7874C103.088 95.356 102.75 95.0063 102.332 95.0063C101.914 95.0063 101.576 95.356 101.576 95.7874C101.576 96.2187 101.914 96.5684 102.332 96.5684Z" fill="black"/>
<path d="M102.332 96.2501C102.75 96.2501 103.088 95.9004 103.088 95.469C103.088 95.0377 102.75 94.688 102.332 94.688C101.914 94.688 101.576 95.0377 101.576 95.469C101.576 95.9004 101.914 96.2501 102.332 96.2501Z" fill="#3F3D56"/>
<path opacity="0.1" d="M103.724 130.378C104.141 130.378 104.48 130.029 104.48 129.597C104.48 129.166 104.141 128.816 103.724 128.816C103.306 128.816 102.968 129.166 102.968 129.597C102.968 130.029 103.306 130.378 103.724 130.378Z" fill="black"/>
<path d="M103.724 130.058C104.141 130.058 104.48 129.708 104.48 129.277C104.48 128.845 104.141 128.496 103.724 128.496C103.306 128.496 102.968 128.845 102.968 129.277C102.968 129.708 103.306 130.058 103.724 130.058Z" fill="#3F3D56"/>
<path opacity="0.1" d="M103.085 113.474C103.503 113.474 103.841 113.124 103.841 112.693C103.841 112.261 103.503 111.912 103.085 111.912C102.668 111.912 102.329 112.261 102.329 112.693C102.329 113.124 102.668 113.474 103.085 113.474Z" fill="black"/>
<path d="M103.085 113.155C103.503 113.155 103.841 112.806 103.841 112.374C103.841 111.943 103.503 111.593 103.085 111.593C102.668 111.593 102.329 111.943 102.329 112.374C102.329 112.806 102.668 113.155 103.085 113.155Z" fill="#3F3D56"/>
<path d="M120.513 132.782C120.513 132.782 121.029 133.581 120.513 133.954C119.998 134.327 120.564 135.23 120.564 135.23C120.564 135.23 119.279 136.008 119.844 136.708C120.41 137.408 120.051 140.57 120.051 140.57L118.506 143.213C118.506 143.213 118.598 144.917 118.604 147.22C118.604 150.813 118.399 155.863 117.268 158.166L117.425 177.058C117.425 177.058 112.012 179.101 107.482 178.479L106.809 148.163C106.809 148.163 107.79 130.971 108.151 127.674C108.362 125.962 108.448 124.236 108.408 122.51C108.408 122.51 108.254 117.35 107.736 114.954C107.736 114.954 107.176 104.578 107.12 101.706C107.095 100.332 107.165 96.3224 107.244 92.5098C107.33 88.3414 107.428 84.4101 107.428 84.4101L106.406 76.0559C106.406 76.0559 107.428 75.9489 107.736 76.3741C107.874 76.5073 108.024 76.6264 108.184 76.73C109.948 77.9623 116.182 81.7517 116.182 81.7517C116.182 81.7517 119.631 83.1692 120.457 85.1999C121.283 87.2306 121.858 88.6711 122.258 89.2497C122.658 89.8282 122.877 92.5474 122.877 92.5474C122.877 92.5474 124.064 97.5518 124.991 98.3994C125.918 99.2469 126.595 104.639 126.595 104.639L118.405 111.292C118.405 111.292 117.685 122.36 117.531 122.788C117.377 123.216 120.513 132.782 120.513 132.782Z" fill="white"/>
<path d="M120.824 132.783C120.824 132.783 121.337 133.581 120.824 133.954C120.312 134.327 120.872 135.23 120.872 135.23C120.872 135.23 119.595 136.017 120.155 136.717C120.715 137.417 120.362 140.579 120.362 140.579L118.817 143.223C118.817 143.223 118.909 144.926 118.917 147.229C118.917 150.822 118.713 155.872 117.582 158.175L117.736 177.067C117.736 177.067 112.315 179.11 107.79 178.488L107.12 148.172C107.12 148.172 108.1 130.98 108.462 127.683C108.673 125.971 108.758 124.245 108.716 122.519C108.716 122.519 108.562 117.359 108.047 114.963C108.047 114.963 107.487 104.587 107.428 101.715C107.403 100.341 107.476 96.3314 107.552 92.5188C107.638 88.3504 107.736 84.4192 107.736 84.4192L106.387 75.9521C106.387 75.9521 107.736 75.9521 108.047 76.3832C108.184 76.5179 108.334 76.6372 108.495 76.739C110.259 77.9713 116.495 81.7607 116.495 81.7607C116.495 81.7607 119.942 83.1782 120.768 85.2089C121.594 87.2396 122.168 88.6801 122.572 89.2587C122.975 89.8372 123.188 92.5564 123.188 92.5564C123.188 92.5564 124.375 97.5608 125.302 98.4084C126.229 99.256 126.898 104.636 126.898 104.636L118.707 111.29C118.707 111.29 117.988 122.357 117.831 122.785C117.674 123.214 120.824 132.783 120.824 132.783Z" fill="white"/>
<path opacity="0.1" d="M111.015 86.8749L111.755 89.1023L107.862 93.1521C107.949 88.9866 108.047 85.0525 108.047 85.0525L106.698 76.5854C106.698 76.5854 108.047 76.5854 108.358 77.0165C108.494 77.1508 108.645 77.2692 108.806 77.3694L112.116 87.2336L111.015 86.8749Z" fill="black"/>
<path d="M110.705 86.2357L111.447 88.4631L107.554 92.5129C107.641 88.3445 107.739 84.4133 107.739 84.4133L106.387 75.9463C106.387 75.9463 107.739 75.9463 108.047 76.3773C108.185 76.5112 108.335 76.6304 108.495 76.7331L111.808 86.5944L110.705 86.2357Z" fill="white"/>
<path opacity="0.1" d="M110.705 64.1961C110.707 65.2385 110.548 66.2745 110.234 67.2652C110.181 67.2738 110.127 67.2713 110.075 67.2578C110.023 67.2444 109.974 67.2204 109.932 67.1871C109.859 64.5837 108.618 62.1393 107.092 60.0595C106.664 59.4315 106.144 58.8754 105.552 58.4106C104.954 57.9461 104.209 57.7285 103.463 57.8002C102.623 57.9188 101.881 58.509 101.033 58.5842C99.9127 58.6796 98.9103 57.8783 97.7986 57.8378C97.3467 57.8423 96.9009 57.9462 96.4909 58.1428C96.081 58.3393 95.7163 58.6239 95.4213 58.9776C94.8372 59.6913 94.4034 60.5227 94.1472 61.419C93.7069 62.7782 93.4671 64.198 93.4359 65.6308C93.4219 66.4408 93.3463 67.4562 92.6183 67.7512C92.6731 67.1555 92.6076 66.5546 92.4259 65.9864C92.2441 65.4183 91.9502 64.8953 91.5626 64.4506L91.5458 64.4333C91.5458 64.3523 91.5458 64.2771 91.5458 64.1961C91.5241 62.8821 91.7558 61.5768 92.2276 60.3563C92.6993 59.1358 93.4015 58.0245 94.2933 57.0873C95.1851 56.1502 96.2486 55.4058 97.4218 54.8977C98.5951 54.3896 99.8545 54.1279 101.127 54.1279C102.399 54.1279 103.658 54.3896 104.831 54.8977C106.005 55.4058 107.068 56.1502 107.96 57.0873C108.852 58.0245 109.554 59.1358 110.026 60.3563C110.497 61.5768 110.729 62.8821 110.707 64.1961H110.705Z" fill="black"/>
<path d="M105.093 48.4798C103.638 47.7727 101.983 47.639 100.439 48.1037C99.6634 48.3409 98.9325 48.7257 98.1457 48.9195C96.4656 49.3389 94.5055 48.8848 93.0634 49.9001C92.2626 50.4786 91.7809 51.3927 91.3329 52.2808L90.2128 54.4851C89.6024 55.6913 88.9864 56.9179 88.7316 58.2456C88.4767 59.5734 88.6307 61.0602 89.4456 62.1277C90.0392 62.9058 90.9157 63.3947 91.5597 64.1265C91.9455 64.5717 92.2382 65.0944 92.4194 65.6618C92.6006 66.2293 92.6663 66.8293 92.6126 67.4242C93.3434 67.135 93.4134 66.1167 93.4302 65.3068C93.4614 63.8739 93.7012 62.4541 94.1415 61.0949C94.397 60.1984 94.831 59.3668 95.4155 58.6535C95.7108 58.3001 96.0755 58.0157 96.4854 57.8192C96.8953 57.6227 97.341 57.5186 97.7929 57.5138C98.9129 57.5543 99.9182 58.3526 101.027 58.2572C101.867 58.1849 102.612 57.5919 103.458 57.4761C104.203 57.4033 104.948 57.621 105.547 58.0865C106.139 58.5506 106.657 59.1068 107.084 59.7354C108.613 61.8152 109.853 64.2538 109.926 66.863C110.242 67.1031 110.699 66.7907 110.856 66.4205C111.012 66.0502 111.018 65.6163 111.217 65.2634C111.446 64.8555 111.886 64.6385 112.23 64.3319C113.104 63.5538 113.323 62.2434 113.289 61.0545C113.255 59.8655 113.031 58.6593 113.25 57.4906C113.381 56.7732 113.678 56.1021 113.841 55.3934C114.003 54.6847 114.023 53.8892 113.639 53.2788C113.079 52.3821 111.9 52.2056 110.872 52.1217C109.705 52.0176 108.66 52.1506 107.915 51.1353C107.566 50.6054 107.172 50.108 106.739 49.6484C106.591 49.498 105.093 48.5434 105.093 48.4798Z" fill="#512E4E"/>
<path opacity="0.1" d="M74.6579 109.481L71.7318 103.893L70.8049 112.516C70.8049 112.516 71.3202 116.346 71.2166 116.933C71.1129 117.52 73.3279 122.785 73.3279 122.785C73.3279 122.785 80.6447 136.248 83.6325 136.942L93.727 129.49L91.0501 125.979C91.0501 125.979 90.1232 125.605 89.8908 125.979C89.8908 125.979 84.9205 117.144 84.4053 116.505C83.8901 115.866 83.9909 114.59 83.9909 114.59C83.9909 114.59 83.218 113.739 83.4757 112.941C83.7333 112.143 81.9832 109.374 81.9832 109.374L83.5793 107.832L74.6579 109.481Z" fill="black"/>
<path d="M71.886 103.256L71.1131 103.893L70.1863 112.516C70.1863 112.516 70.7015 116.346 70.5979 116.933C70.4943 117.52 72.712 122.785 72.712 122.785C72.712 122.785 80.026 136.248 83.0138 136.942L93.1112 129.49L90.4314 125.979C90.4314 125.979 89.5046 125.606 89.2722 125.979C89.2722 125.979 84.3019 117.144 83.7867 116.505C83.2714 115.866 83.375 114.59 83.375 114.59C83.375 114.59 82.6022 113.74 82.8598 112.941C83.1174 112.143 81.3645 109.374 81.3645 109.374L82.9606 107.833L71.886 103.256Z" fill="white"/>
<path opacity="0.1" d="M119.844 137.038C120.404 137.741 120.052 140.897 120.052 140.897L118.506 143.541C118.506 143.541 118.598 145.247 118.604 147.547L116.005 148.386C115.77 148.462 115.521 148.478 115.279 148.434C115.037 148.391 114.808 148.287 114.612 148.134C114.416 147.98 114.259 147.78 114.153 147.551C114.047 147.321 113.996 147.069 114.003 146.815L114.451 131.886L120.514 134.281C119.998 134.651 120.564 135.559 120.564 135.559C120.564 135.559 119.279 136.335 119.844 137.038Z" fill="black"/>
<path d="M120.155 136.716C120.715 137.419 120.362 140.578 120.362 140.578L118.816 143.222C118.816 143.222 118.909 144.926 118.917 147.229L116.271 148.082C116.041 148.156 115.797 148.172 115.56 148.129C115.323 148.085 115.099 147.984 114.907 147.834C114.716 147.683 114.562 147.488 114.458 147.263C114.354 147.039 114.304 146.792 114.311 146.543L114.762 131.567L120.827 133.963C120.309 134.333 120.875 135.238 120.875 135.238C120.875 135.238 119.595 136.016 120.155 136.716Z" fill="white"/>
<path d="M122.163 129.6C122.163 129.6 121.751 132.317 120.721 132.476C119.69 132.635 119.228 136.87 118.201 136.719C117.173 136.569 117.853 132.782 117.89 132.048C117.926 131.313 116.77 128.27 117.635 127.578C118.5 126.887 121.239 127.578 121.239 127.578L122.163 129.6Z" fill="#CF6F80"/>
<path opacity="0.1" d="M124.355 108.683L126.299 104.633C126.299 104.633 127.071 107.72 127.071 109.369C127.071 111.018 128.152 111.18 128.152 111.18C128.152 111.18 129.337 112.626 128.712 113.679C128.088 114.732 127.836 117.353 127.836 117.353C127.836 117.353 128.04 122.354 127.113 123.045C126.187 123.737 125.993 125.389 125.993 125.389C125.993 125.389 124.291 128.527 124.344 129.274C124.397 130.02 121.975 135.073 121.975 135.073C121.975 135.073 123.16 128.793 116.257 126.08C116.257 126.08 116.204 123.948 116.719 123.364C117.234 122.779 118.038 122.513 117.534 119.56C117.03 116.606 117.388 113.077 117.388 112.368C117.388 111.66 118.934 107.24 118.934 107.24L124.355 108.683Z" fill="black"/>
<path d="M125.195 104.055L126.892 104.633C126.892 104.633 127.668 107.72 127.668 109.369C127.668 111.017 128.749 111.179 128.749 111.179C128.749 111.179 129.933 112.626 129.309 113.679C128.684 114.732 128.435 117.353 128.435 117.353C128.435 117.353 128.639 122.354 127.713 123.045C126.786 123.737 126.579 125.389 126.579 125.389C126.579 125.389 124.879 128.527 124.932 129.273C124.985 130.02 122.56 135.073 122.56 135.073C122.56 135.073 123.748 128.793 116.842 126.08C116.842 126.08 116.792 123.948 117.307 123.364C117.822 122.779 118.626 122.513 118.122 119.56C117.618 116.606 117.976 113.077 117.976 112.368C117.976 111.66 119.522 107.24 119.522 107.24L125.195 104.055Z" fill="white"/>
<path opacity="0.1" d="M87.7151 209.023C87.7151 209.023 90.42 207.268 92.1953 208.543C93.9706 209.819 87.7151 209.023 87.7151 209.023Z" fill="black"/>
<path opacity="0.1" d="M108.733 203.594C108.733 203.594 111.127 203.276 113.138 205.512C115.148 207.748 108.733 203.594 108.733 203.594Z" fill="black"/>
<g opacity="0.1">
<path opacity="0.1" d="M112.236 63.6982C111.892 64.0048 111.449 64.2246 111.22 64.6325C111.024 64.9825 111.018 65.4136 110.861 65.7896C110.704 66.1657 110.248 66.4723 109.932 66.2351C109.859 63.6316 108.615 61.1873 107.089 59.1045C106.663 58.476 106.144 57.9197 105.552 57.4557C104.953 56.9902 104.207 56.7725 103.46 56.8453C102.62 56.9639 101.881 57.554 101.033 57.6263C99.9126 57.7247 98.9073 56.9234 97.7957 56.8829C97.3439 56.8876 96.8983 56.9919 96.4888 57.189C96.0793 57.386 95.7153 57.6713 95.4211 58.0255C94.8366 58.7378 94.4026 59.5684 94.1471 60.4641C93.707 61.8233 93.4673 63.2431 93.4358 64.6759C93.419 65.483 93.3462 66.4896 92.6238 66.7905C92.6406 67.0042 92.6406 67.219 92.6238 67.4327C93.3518 67.1434 93.4246 66.1252 93.4414 65.3152C93.4726 63.8823 93.7124 62.4625 94.1527 61.1034C94.4082 60.2068 94.8422 59.3753 95.4267 58.6619C95.7215 58.3086 96.0857 58.0242 96.4951 57.8277C96.9045 57.6312 97.3498 57.527 97.8013 57.5222C98.9213 57.5627 99.9294 58.3611 101.038 58.2656C101.878 58.1933 102.623 57.6003 103.466 57.4846C104.212 57.4118 104.958 57.6295 105.558 58.095C106.15 58.559 106.668 59.1153 107.095 59.7438C108.621 61.8237 109.864 64.2622 109.937 66.8715C110.254 67.1116 110.71 66.7992 110.867 66.4289C111.024 66.0586 111.029 65.6247 111.225 65.2718C111.455 64.8639 111.897 64.647 112.242 64.3403C113.115 63.5622 113.334 62.2518 113.3 61.0629C113.3 61.0253 113.3 60.9877 113.3 60.953C113.247 61.9828 112.981 63.0328 112.236 63.6982Z" fill="black"/>
<path opacity="0.1" d="M91.5653 63.4931C90.9213 62.7612 90.042 62.2723 89.4512 61.4971C88.9537 60.8108 88.6696 59.9846 88.6364 59.1279C88.5482 60.1985 88.8376 61.2659 89.4512 62.1335C90.042 62.9116 90.9213 63.4005 91.5653 64.1323C92.1837 64.8482 92.5549 65.7556 92.621 66.7127C92.6638 66.1302 92.5924 65.5449 92.411 64.9916C92.2296 64.4384 91.942 63.9287 91.5653 63.4931Z" fill="black"/>
<path opacity="0.1" d="M113.846 54.7598C113.681 55.4685 113.387 56.1425 113.253 56.857C113.173 57.3344 113.144 57.8194 113.166 58.3033C113.175 58.0277 113.204 57.7531 113.253 57.4818C113.387 56.7644 113.681 56.0933 113.846 55.3846C113.942 54.9937 113.974 54.5887 113.939 54.187C113.921 54.38 113.89 54.5714 113.846 54.7598Z" fill="black"/>
</g>
<path opacity="0.1" d="M37.262 220.785C52.331 220.785 64.5468 218.758 64.5468 216.258C64.5468 213.758 52.331 211.731 37.262 211.731C22.1931 211.731 9.97729 213.758 9.97729 216.258C9.97729 218.758 22.1931 220.785 37.262 220.785Z" fill="#27B4EF"/>
<path d="M38.1412 129.534H36.3855V170.371H38.1412V129.534Z" fill="#535461"/>
<path d="M49.1739 170.246L49.0647 172.086L48.9079 174.69L48.8435 175.771L48.6895 178.375L48.6222 179.457L48.4654 182.06L46.6957 211.586C46.6188 212.857 46.0762 214.049 45.1783 214.921C44.2805 215.792 43.0948 216.278 41.8627 216.278H32.6613C31.4295 216.278 30.2442 215.792 29.3468 214.921C28.4493 214.049 27.9073 212.856 27.8311 211.586L26.0698 182.04L25.913 179.437L25.8486 178.355L25.6918 175.751L25.6274 174.669L25.4705 172.066L25.3585 170.226C25.3391 169.872 25.3899 169.518 25.5078 169.184C25.6257 168.851 25.8082 168.547 26.0442 168.289C26.2802 168.031 26.5646 167.826 26.8801 167.686C27.1956 167.546 27.5354 167.475 27.8787 167.475H46.6985C47.0406 167.478 47.3784 167.554 47.6911 167.697C48.0038 167.84 48.2848 168.048 48.5167 168.307C48.7487 168.567 48.9267 168.873 49.0397 169.207C49.1527 169.54 49.1984 169.894 49.1739 170.246Z" fill="#3F3D56"/>
<path d="M49.0646 172.086L48.9077 174.681H25.616L25.4592 172.086H49.0646Z" fill="#9D9CB5"/>
<path d="M48.8433 175.763L48.6893 178.36H25.8372L25.6804 175.763H48.8433Z" fill="#9D9CB5"/>
<path d="M48.6221 179.445L48.4681 182.04H26.0584L25.9016 179.445H48.6221Z" fill="#9D9CB5"/>
<path d="M22.7796 144.839C33.0029 152.482 37.2704 164.435 37.2704 164.435C37.2704 164.435 24.9497 163.998 14.7235 156.355C4.49732 148.713 0.238281 136.763 0.238281 136.763C0.238281 136.763 12.5534 137.197 22.7796 144.839Z" fill="#27B4EF"/>
<path d="M0.22998 136.763C0.22998 136.763 13.0211 144.096 17.1233 150.168C21.2256 156.239 37.2705 164.435 37.2705 164.435" stroke="#535461" stroke-width="2" stroke-miterlimit="10"/>
<path d="M29.3794 129.444C34.9433 133.601 37.2703 140.107 37.2703 140.107C37.2703 140.107 30.5639 139.87 24.9972 135.713C19.4305 131.556 17.1091 125.047 17.1091 125.047C17.1091 125.047 23.8127 125.285 29.3794 129.444Z" fill="#27B4EF"/>
<path d="M17.1091 125.047C17.1091 125.047 24.0703 129.039 26.302 132.343C28.5338 135.646 37.2703 140.107 37.2703 140.107" stroke="#535461" stroke-width="2" stroke-miterlimit="10"/>
<path d="M45.3488 139.777C38.956 147.035 37.6035 156.52 37.6035 156.52C37.6035 156.52 46.6172 154.235 53.0044 146.974C59.3915 139.713 60.7496 130.231 60.7496 130.231C60.7496 130.231 51.7415 132.519 45.3488 139.777Z" fill="#27B4EF"/>
<path d="M60.7552 130.234C60.7552 130.234 52.4276 137.674 50.3106 142.8C48.1937 147.926 37.6035 156.52 37.6035 156.52" stroke="#535461" stroke-width="2" stroke-miterlimit="10"/>
<path d="M280.019 137.223C280.019 137.223 275.396 113.462 277.166 110.506C277.166 110.506 277.23 107.758 277.123 104.254C277.123 104.121 277.123 103.988 277.123 103.852C277.435 104.067 277.759 104.26 278.095 104.431C279.726 105.296 281.598 105.546 283.387 105.137L281.987 103.525C281.651 103.141 281.301 102.724 281.229 102.215C281.156 101.706 281.357 101.252 281.531 100.798C282.861 97.3264 282.931 92.9612 280.369 90.3115C278.204 88.0841 277.678 85.2087 275.329 83.1752C273.612 81.6854 272.668 79.5014 271.778 77.3897C271.025 75.6049 270.266 73.8056 269.835 71.9138C269.499 70.4356 269.364 68.9053 268.902 67.4619C268.44 66.0184 267.575 64.6154 266.222 63.9703C265.741 63.7418 265.206 63.6116 264.766 63.3079C264.19 62.9058 263.842 62.2521 263.425 61.6793C261.305 58.7866 254.207 60.4904 250.847 61.6648C249.933 61.9606 249.087 62.4448 248.36 63.0881L248.391 63.036C248.416 62.9926 248.447 62.9492 248.475 62.9058C248.107 63.2131 247.79 63.5793 247.534 63.9906C247.044 64.7919 246.84 65.7262 246.431 66.594C245.938 67.621 243.197 70.4877 244.376 71.6419C244.458 71.7194 244.553 71.7819 244.656 71.827C245.098 72.0173 245.585 72.0676 246.056 71.9716L246.005 72.096C245.603 73.1143 245.396 74.204 245.398 75.304C245.398 80.0568 249.192 83.9099 253.877 83.9099C254.757 83.9108 255.633 83.7713 256.472 83.4962C256.492 83.6062 256.509 83.7161 256.528 83.826C256.528 83.8694 256.542 83.9128 256.548 83.9562L256.4 84.1703C256.392 84.157 256.384 84.1445 256.374 84.1326L251.978 90.4793C251.306 90.9682 247.436 93.8609 247.218 96.0304C246.988 98.4054 246.759 101.185 246.759 101.185L246.728 101.781C246.536 101.947 246.311 102.068 246.069 102.135C245.828 102.203 245.575 102.215 245.328 102.172C243.956 101.94 243.956 107.379 243.956 107.379C243.956 107.379 243.043 108.246 242.416 107.494C241.788 106.742 240.131 109.291 240.131 109.291L229.742 109.754L229.504 109.768L228.944 107.977C228.884 107.789 228.754 107.632 228.582 107.541C228.411 107.451 228.212 107.434 228.028 107.494C227.985 107.509 227.943 107.527 227.902 107.549L227.863 107.572L227.79 107.624L227.754 107.659C227.734 107.678 227.715 107.698 227.698 107.72L227.664 107.76L227.648 107.778C227.583 107.87 227.54 107.977 227.523 108.089C227.505 108.202 227.513 108.317 227.547 108.426L228.028 109.962C226.023 110.378 223.974 111.553 225.645 114.787L217.172 113.17L219.913 115.548L234.065 118.565C233.878 118.912 234.001 119.415 234.586 120.124C237.106 123.182 241.699 124.012 243.547 124.226C244.035 125.354 244.645 126.421 245.364 127.408L245.205 130.454C245.205 130.454 240.525 153.671 239.669 154.848C240.101 154.342 240.497 153.803 240.853 153.237C239.495 158.007 237.596 164.536 237.098 165.514C236.297 167.076 235.555 173.396 236.468 173.801C236.748 173.926 237.549 173.865 238.691 173.775V174.299L238.641 194.14C238.641 194.14 238.871 206.31 238.241 207.47C237.61 208.63 237.442 211.063 237.442 211.063C237.442 211.063 234.922 215.862 232.926 217.791C232.912 217.806 232.897 217.82 232.881 217.832L232.819 217.38C232.819 217.38 230.42 220.51 225.111 220.334C225.111 220.334 221.916 222.48 226.653 222.596C231.391 222.712 237.442 222.422 237.442 222.422C237.442 222.422 241.668 215.769 245.207 216.637V221.679H246.291V216.556C246.794 216.214 247.224 215.77 247.555 215.252C247.887 214.733 248.113 214.15 248.22 213.539C248.313 212.908 248.245 212.264 248.023 211.669C247.801 211.074 247.433 210.549 246.955 210.146C246.74 209.945 246.567 209.7 246.448 209.428C246.329 209.155 246.266 208.86 246.263 208.56L246.224 208.595C246.224 208.494 246.199 208.39 246.187 208.283C245.877 205.679 245.487 200.307 246.862 196.333C248.747 190.883 249.318 183.292 247.946 178.774C247.503 177.33 247.139 175.861 246.857 174.374C246.823 174.186 246.792 174.007 246.764 173.839C247.702 173.97 248.631 174.163 249.545 174.418C252.723 175.323 259.676 175.491 265.612 175.442C265.626 175.609 265.643 175.786 265.662 175.962C265.768 177.189 265.99 178.402 266.323 179.584C267.068 181.898 267.41 192.101 267.41 192.101C267.41 192.101 268.37 200.49 267.847 203.903C267.567 205.801 267.287 207.707 267.127 209.622V209.66C267.127 209.66 265.553 214.288 264.402 216.802C264.374 216.865 264.344 216.929 264.316 216.99C264.009 217.019 263.707 217.088 263.417 217.195C263.417 217.195 261.874 220.377 260.337 220.904C258.799 221.43 259.309 223.163 262.79 222.526C266.27 221.89 271.526 221.369 271.526 221.369L271.753 218.124L272.822 216.741L272.542 219.978L273.682 219.747L273.531 215.81L275.281 213.547C275.281 213.547 277.395 211.604 274.253 207.779V207.863C274.22 207.808 274.189 207.75 274.153 207.695V207.678C273.632 206.845 273.217 205.292 273.976 202.535C275.348 197.554 276.146 193.032 276.146 193.032C276.146 193.032 279.21 180.92 275.527 175.19H275.69C275.312 174.383 275.046 173.527 274.897 172.644C274.879 172.54 274.862 172.433 274.847 172.323C277.572 172.161 280.246 171.652 282.427 170.553C282.419 170.541 281.105 141.799 280.019 137.223ZM245.429 117.176V117.234L244.868 117.263L245.429 117.176ZM243.508 117.451C243.416 117.472 243.329 117.515 243.256 117.575C243.015 117.927 242.864 118.336 242.816 118.764L241.942 118.562C241.942 118.562 241.329 118.426 240.447 118.273L240.03 117.839C241.178 117.74 242.371 117.596 243.508 117.451Z" fill="url(#paint1_linear_1_252)"/>
<path d="M272.414 215.85L272.08 219.949L273.198 219.718L273.03 215.271L272.414 215.85Z" fill="#1D2366"/>
<path d="M246.924 196.388C245.577 200.351 245.958 205.699 246.26 208.297C246.372 209.257 246.476 209.842 246.476 209.842C246.476 209.842 244.462 214.58 244.294 214.759C244.126 214.939 238.369 218.569 238.369 218.569L234.345 220.996C234.345 220.996 230.263 219.148 232.22 218.511C232.62 218.345 232.98 218.092 233.276 217.768C235.236 215.844 237.697 211.062 237.697 211.062C237.697 211.062 237.865 208.635 238.481 207.481C239.097 206.327 238.873 194.198 238.873 194.198L238.921 174.426V171.849L246.579 171.906C246.628 172.781 246.738 173.652 246.91 174.51C247.185 175.991 247.541 177.456 247.977 178.895C249.326 183.405 248.766 190.958 246.924 196.388Z" fill="#FFB0B1"/>
<path opacity="0.1" d="M246.476 209.842C246.476 209.842 244.462 214.58 244.294 214.759C244.126 214.939 238.369 218.569 238.369 218.569L234.345 220.996C234.345 220.996 230.263 219.148 232.22 218.511C232.62 218.345 232.98 218.092 233.276 217.768L233.449 219.032L234.791 218.974L246.271 208.303C246.372 209.257 246.476 209.842 246.476 209.842Z" fill="black"/>
<path d="M246.336 208.572L234.791 219.315L233.449 219.373L233.169 217.348C233.169 217.348 230.823 220.467 225.609 220.293C225.609 220.293 222.478 222.431 227.118 222.547C231.758 222.662 237.683 222.373 237.683 222.373C237.683 222.373 241.822 215.72 245.286 216.588V221.612H246.35V216.541C246.844 216.197 247.267 215.753 247.591 215.236C247.915 214.719 248.135 214.14 248.237 213.533C248.329 212.907 248.264 212.268 248.048 211.676C247.831 211.085 247.471 210.56 247.002 210.154C246.793 209.951 246.625 209.706 246.511 209.434C246.396 209.162 246.337 208.869 246.336 208.572Z" fill="#1D2366"/>
<path d="M273.478 202.567C272.733 205.315 273.139 206.862 273.648 207.693V207.71C274.302 208.735 274.757 209.881 274.987 211.086L275.032 211.346L269.779 219.258L266.928 220.415C266.928 220.415 262.344 218.798 263.182 218.335C263.392 218.222 263.719 217.62 264.094 216.79C265.214 214.288 266.76 209.671 266.76 209.671V209.634C266.922 207.727 267.18 205.827 267.466 203.935C267.978 200.53 267.037 192.173 267.037 192.173C267.037 192.173 266.701 182.011 265.973 179.7C265.645 178.524 265.426 177.319 265.321 176.101C265.17 174.655 265.136 173.463 265.136 173.463C265.136 173.463 268.155 169.124 273.688 173.81C274.13 174.184 274.519 174.62 274.844 175.106C278.666 180.724 275.589 193.099 275.589 193.099C275.589 193.099 274.819 197.6 273.478 202.567Z" fill="#FFB0B1"/>
<path opacity="0.1" d="M275.04 211.346L269.787 219.258L266.936 220.415C266.936 220.415 262.353 218.798 263.19 218.335C263.4 218.222 263.727 217.62 264.103 216.79C266.043 216.773 267.048 218.682 267.048 218.682L269.507 218.277C269.507 218.277 272.75 211.693 273.478 211.291C274.206 210.889 273.59 208.285 273.59 208.285V207.623C273.609 207.646 273.626 207.672 273.648 207.695V207.713C274.302 208.738 274.757 209.884 274.987 211.089L275.04 211.346Z" fill="black"/>
<path d="M267.216 218.853C267.216 218.853 265.816 216.197 263.134 217.178C263.134 217.178 261.624 220.36 260.115 220.875C258.606 221.39 259.11 223.125 262.521 222.492C265.931 221.858 271.072 221.335 271.072 221.335L271.296 218.098L274.763 213.536C274.763 213.536 276.829 211.601 273.755 207.791V208.453C273.755 208.453 274.371 211.057 273.643 211.459C272.915 211.861 269.683 218.448 269.683 218.448L267.216 218.853Z" fill="#1D2366"/>
<path opacity="0.1" d="M246.588 171.901C246.636 172.776 246.746 173.646 246.918 174.504C243.765 174.027 240.839 174.264 238.921 174.42V171.843L246.588 171.901Z" fill="black"/>
<path opacity="0.1" d="M275.155 175.826C275.155 175.826 270.675 176.052 265.332 176.098C265.181 174.652 265.147 173.46 265.147 173.46C265.147 173.46 268.166 169.121 273.699 173.807C274.141 174.181 274.531 174.617 274.855 175.103C274.942 175.35 275.042 175.591 275.155 175.826Z" fill="black"/>
<path d="M275.155 175.306C275.155 175.306 255.531 176.286 249.55 174.554C243.569 172.821 237.641 174.322 236.748 173.92C235.855 173.518 236.58 167.22 237.364 165.661C238.148 164.102 242.449 148.334 242.449 148.334L246.588 126.042L250.948 124.802L251.256 124.712L258.852 122.548L264.419 120.96C264.419 120.96 275.488 165.603 274.539 168.895C274.194 170.156 274.139 171.482 274.377 172.769C274.522 173.647 274.784 174.501 275.155 175.306Z" fill="#1D2366"/>
<path d="M232.161 110.798C232.161 110.798 228.241 115.137 231.209 117.555C234.178 119.974 236.129 117.787 236.129 117.787L232.161 110.798Z" fill="#C7DAF5"/>
<path opacity="0.1" d="M232.161 110.798C232.161 110.798 228.241 115.137 231.209 117.555C234.178 119.974 236.129 117.787 236.129 117.787L232.161 110.798Z" fill="black"/>
<path d="M263.834 82.2696C263.834 82.2696 263.375 82.7209 262.683 83.3862C261.697 84.3379 260.239 85.7293 258.945 86.8951C257.153 88.5063 255.674 89.6894 256.204 88.6799C256.733 87.6703 256.632 85.9115 256.369 84.2656C256.349 84.1557 256.332 84.0457 256.313 83.9387C256.095 82.7299 255.806 81.5359 255.448 80.3633C255.448 80.3633 258.343 76.4986 259.945 74.9741C260.541 74.3956 260.958 74.1584 260.983 74.5605C261.011 75.1014 261.403 76.2961 261.891 77.5631C261.905 77.6036 261.919 77.6412 261.935 77.6817C262.26 78.5496 262.627 79.4405 262.949 80.21C263.442 81.3902 263.834 82.2696 263.834 82.2696Z" fill="#FFB0B1"/>
<path opacity="0.1" d="M261.935 77.6818C261.663 79.1936 261.003 80.6022 260.024 81.7604C259.045 82.9185 257.782 83.7838 256.369 84.2656C256.146 82.9451 255.838 81.6414 255.448 80.3633C255.448 80.3633 260.899 73.0881 260.983 74.5605C261.003 75.1188 261.429 76.3569 261.935 77.6818Z" fill="black"/>
<path opacity="0.1" d="M255.826 86.2095L256.531 85.1826C256.531 85.1826 256.999 88.1274 258.718 86.8286C260.437 85.5297 260.521 96.6031 260.521 96.6031L258.676 125.105L245.342 124.281L245.72 110.508L247.229 103.566L250.962 93.4732L253.182 90.1379L255.826 86.2095Z" fill="black"/>
<path d="M260.521 96.7797L258.841 122.551L258.665 125.282L251.23 124.822L250.95 124.804L245.35 124.457L245.728 110.682L247.237 103.74L250.97 93.6468L253.191 90.3115L255.834 86.3687L256.54 85.3447C256.54 85.3447 257.007 88.2895 258.726 86.9907L258.763 86.9646C260.443 85.8654 260.521 96.7797 260.521 96.7797Z" fill="#1D2366"/>
<path d="M247.425 101.327C247.425 101.327 246.756 102.774 245.412 102.539C244.068 102.305 244.07 107.746 244.07 107.746C244.07 107.746 243.177 108.614 242.561 107.862C241.945 107.11 240.321 109.652 240.321 109.652L230.145 110.115C230.145 110.115 234.673 112.253 233.785 118.721C233.785 118.721 249.158 117.738 249.662 116.236C250.166 114.735 247.425 101.327 247.425 101.327Z" fill="white"/>
<path opacity="0.03" d="M247.425 101.327C247.425 101.327 246.756 102.774 245.412 102.539C244.068 102.305 244.07 107.746 244.07 107.746C244.07 107.746 243.177 108.614 242.561 107.862C241.945 107.11 240.321 109.652 240.321 109.652L230.145 110.115C230.145 110.115 234.673 112.253 233.785 118.721C233.785 118.721 249.158 117.738 249.662 116.236C250.166 114.735 247.425 101.327 247.425 101.327Z" fill="black"/>
<path d="M217.853 113.514L220.535 115.88L242.617 120.674L239.879 117.787L217.853 113.514Z" fill="white"/>
<path d="M255.867 87.1207C255.501 87.6993 254.451 90.6614 253.574 93.2475C252.843 95.4026 252.233 97.2973 252.233 97.2973C252.233 97.2973 250.808 106.884 250.08 108.617C249.351 110.349 249.746 117.107 249.746 117.107L247.033 133.795C247.033 133.795 245.804 142.401 243.905 147.541C242.032 152.6 239.946 154.973 239.881 155.048C240.721 153.873 245.3 130.749 245.3 130.749L246.812 101.584C246.812 101.584 247.033 98.8131 247.257 96.444C247.481 94.0748 252.017 90.8408 252.017 90.8408L256.391 84.416C256.831 85.0235 256.537 86.0822 255.867 87.1207Z" fill="white"/>
<path d="M244.462 124.602C244.462 124.602 238.022 124.313 234.903 120.442C231.783 116.572 242.113 118.897 242.113 118.897L244.798 119.534L244.462 124.602Z" fill="#FFB0B1"/>
<path opacity="0.1" d="M274.539 168.898C274.194 170.159 274.138 171.485 274.376 172.771C267.351 173.286 259.835 171.325 259.835 171.325C258.435 172.656 254.747 174.617 254.747 174.617L252.737 148.872C251.452 145.4 250.948 127.214 250.948 127.214C250.948 127.214 251.062 126.262 251.228 124.836C251.228 124.801 251.228 124.764 251.242 124.729C251.743 120.746 252.737 113.268 253.224 112.258C253.896 110.87 251.158 107.176 251.158 107.176L252.404 96.198L252.555 94.8732C255.181 93.6611 257.195 89.7906 257.195 89.7906L258.74 86.9934C260.42 85.8797 260.507 96.7939 260.507 96.7939L258.827 122.565L264.394 120.977C264.394 120.977 275.488 165.606 274.539 168.898Z" fill="black"/>
<path d="M281.749 170.677C274.091 174.605 260.171 170.966 260.171 170.966C258.771 172.297 255.084 174.258 255.084 174.258L253.07 148.513C251.788 145.042 251.284 126.855 251.284 126.855C251.284 126.855 252.902 113.285 253.574 111.9C253.77 111.495 253.675 110.893 253.443 110.245C252.3 107.161 251.88 103.841 252.216 100.557L252.754 95.8394L252.902 94.5174C255.532 93.3024 257.545 89.432 257.545 89.432L258.945 86.8979L261.521 82.2291L262.742 80.019L262.949 80.2129L264.531 81.6939C264.531 81.6939 265.203 82.2725 266.211 83.1403C268.404 85.0495 272.192 88.4108 274.147 90.4676C275.866 92.2784 276.41 99.3222 276.566 104.625C276.67 108.116 276.608 110.853 276.608 110.853C274.875 113.8 279.408 137.466 279.408 137.466C280.464 142.039 281.749 170.677 281.749 170.677Z" fill="white"/>
<path opacity="0.03" d="M267.049 89.3743C267.049 89.3743 261.793 99.71 262.403 103.638C263.013 107.567 264.75 112.013 263.912 113.051C263.625 113.445 263.253 113.764 262.826 113.984C262.399 114.205 261.928 114.32 261.451 114.321C260.611 114.379 258.371 115.996 258.371 116.17C258.371 116.343 256.301 116.343 254.451 117.153C252.6 117.963 249.867 118.423 249.867 118.423C249.867 118.423 244.546 118.25 244.051 118.77C243.555 119.291 243.046 122.406 244.107 124.891C245.168 127.376 246.347 129.23 247.237 129.569C248.128 129.907 253.779 127.952 258.362 127.489C262.946 127.026 267.922 123.274 267.922 123.274C267.922 123.274 273.402 121.249 274.362 117.845C275.323 114.44 273.189 95.7268 273.189 95.7268C273.189 95.7268 271.576 87.0052 267.049 89.3743Z" fill="black"/>
<path opacity="0.03" d="M266.376 88.5063C266.376 88.5063 261.12 98.8449 261.736 102.77C262.353 106.696 264.083 111.145 263.243 112.186C262.956 112.58 262.585 112.9 262.158 113.12C261.732 113.341 261.261 113.456 260.784 113.456C259.944 113.514 257.704 115.131 257.704 115.305C257.704 115.478 255.635 115.478 253.784 116.285C251.933 117.092 249.2 117.555 249.2 117.555C249.2 117.555 243.88 117.382 243.387 117.902C242.894 118.423 242.379 121.541 243.443 124.023C244.507 126.505 245.683 128.362 246.574 128.701C247.464 129.039 253.115 127.084 257.699 126.624C262.283 126.164 267.258 122.406 267.258 122.406C267.258 122.406 272.736 120.381 273.685 116.979C274.634 113.578 272.512 94.8588 272.512 94.8588C272.512 94.8588 270.904 86.1401 266.376 88.5063Z" fill="black"/>
<path d="M266.883 88.8537C266.883 88.8537 261.627 99.1923 262.243 103.118C262.859 107.043 264.59 111.492 263.753 112.531C263.466 112.925 263.094 113.246 262.667 113.467C262.24 113.688 261.769 113.803 261.291 113.803C260.451 113.861 258.211 115.478 258.211 115.649C258.211 115.82 256.145 115.823 254.291 116.633C252.437 117.443 249.707 117.902 249.707 117.902C249.707 117.902 244.387 117.729 243.891 118.25C243.396 118.77 242.886 121.889 243.947 124.371C245.008 126.853 246.187 128.71 247.078 129.048C247.968 129.387 253.619 127.431 258.203 126.968C262.787 126.505 267.762 122.754 267.762 122.754C267.762 122.754 273.242 120.729 274.203 117.324C275.163 113.919 273.044 95.2061 273.044 95.2061C273.044 95.2061 271.408 86.499 266.883 88.8537Z" fill="white"/>
<path opacity="0.1" d="M266.768 116.583C266.768 116.583 262.568 115.716 264.03 117.162C265.492 118.608 265.483 119.875 267.272 119.817C269.062 119.76 266.768 116.583 266.768 116.583Z" fill="black"/>
<path opacity="0.1" d="M273.867 147.703C273.867 147.703 271.968 149.031 275.6 152.091C279.232 155.152 273.867 147.703 273.867 147.703Z" fill="black"/>
<path opacity="0.1" d="M270.243 158.617C270.243 158.791 269.571 164.981 272.086 166.529C274.6 168.076 270.243 158.617 270.243 158.617Z" fill="black"/>
<path d="M230.319 110.101C228.292 110.173 223.912 110.812 226.183 115.189C228.191 119.062 231.565 116.473 233.463 114.509C233 112.678 231.875 111.1 230.319 110.101Z" fill="#FFB0B1"/>
<path d="M233.489 114.474L233.573 114.385L233.489 114.474Z" fill="#FFB0B1"/>
<path opacity="0.1" d="M266.211 83.317C264.061 84.8357 262.257 86.1171 261.905 86.3833C260.941 87.1209 259.104 91.4513 257.92 93.6614C256.976 95.4404 253.91 95.8974 252.754 96.0103L252.902 94.6883C255.531 93.4733 257.545 89.6029 257.545 89.6029L262.742 80.1899L264.531 81.8706C264.531 81.8706 265.203 82.4492 266.211 83.317Z" fill="black"/>
<path d="M266.211 83.1431C264.061 84.6618 262.257 85.9433 261.905 86.2123C260.941 86.9471 259.104 91.2775 257.92 93.4875C256.976 95.2666 253.91 95.7236 252.754 95.8364L252.902 94.5145C255.531 93.2995 257.545 89.429 257.545 89.429L262.742 80.0161L264.531 81.691C264.531 81.691 265.203 82.2638 266.211 83.1431Z" fill="#DCE7FF"/>
<path d="M262.073 75.7727C262.074 77.5092 261.564 79.205 260.611 80.6354C259.485 82.3266 257.81 83.5449 255.889 84.0692C253.969 84.5936 251.93 84.3893 250.142 83.4934C248.355 82.5975 246.937 81.0694 246.147 79.1863C245.357 77.3031 245.247 75.1898 245.836 73.2298C246.425 71.2697 247.675 69.5927 249.358 68.5032C251.042 67.4136 253.048 66.9837 255.012 67.2913C256.977 67.5989 258.769 68.6238 260.064 70.1799C261.36 71.736 262.072 73.7203 262.073 75.7727Z" fill="#FFB0B1"/>
<path opacity="0.1" d="M276.566 104.628C275.429 103.905 274.503 102.877 273.887 101.654C273.419 100.699 273.108 99.5972 272.31 98.9203C271.59 98.3128 270.63 98.1653 269.734 97.8934C266.788 96.9938 264.318 94.2167 264.226 91.0463C264.181 89.5537 264.632 88.0639 264.428 86.5857C264.311 85.7491 263.989 84.9573 263.492 84.286C263.246 83.9649 262.975 83.6642 262.683 83.3864C262.291 83.0045 261.879 82.6343 261.521 82.2293C261.295 81.9785 261.098 81.7019 260.933 81.4049C260.8 81.1618 260.692 80.9048 260.611 80.6383C260.051 78.8679 260.561 76.7678 259.945 74.9772L259.911 74.8789C259.679 74.2425 259.205 73.6061 258.547 73.5569C257.889 73.5077 257.326 74.0718 256.699 74.3235C255.386 74.8499 253.969 73.9532 252.874 73.0391C251.779 72.125 250.544 71.0807 249.153 71.2832C248.232 71.4192 247.503 72.0671 246.655 72.4027C246.463 72.4793 246.266 72.5384 246.064 72.5792C246.782 70.7293 248.101 69.1955 249.795 68.2413C251.489 67.287 253.452 66.972 255.346 67.3502C257.24 67.7284 258.948 68.7763 260.175 70.3138C261.403 71.8514 262.074 73.7826 262.073 75.7756C262.074 76.3775 262.013 76.9777 261.891 77.5662C261.905 77.6067 261.919 77.6443 261.935 77.6848C262.26 78.5526 262.627 79.4436 262.949 80.2131L264.531 81.6941C264.531 81.6941 265.203 82.2727 266.211 83.1405C268.404 85.0497 272.192 88.411 274.147 90.4678C275.866 92.2844 276.404 99.3253 276.566 104.628Z" fill="black"/>
<path d="M246.557 67.1177C246.958 66.2759 247.156 65.3329 247.635 64.5345C248.338 63.3774 249.564 62.6368 250.825 62.1885C254.115 61.0169 261.067 59.316 263.145 62.1885C263.554 62.767 263.893 63.4092 264.458 63.8084C264.89 64.1121 265.411 64.2423 265.884 64.4708C267.208 65.113 268.054 66.5131 268.505 67.9421C268.956 69.3711 269.09 70.9042 269.42 72.3766C269.843 74.2656 270.585 76.0562 271.324 77.8352C272.195 79.9353 273.119 82.1136 274.799 83.5975C277.093 85.6224 277.6 88.4891 279.728 90.7107C282.248 93.3489 282.167 97.7025 280.867 101.159C280.697 101.613 280.503 102.088 280.571 102.571C280.638 103.054 280.985 103.494 281.313 103.878L282.69 105.484C279.431 106.297 275.743 104.538 274.225 101.451C273.758 100.497 273.447 99.3976 272.646 98.7178C271.929 98.1103 270.966 97.9657 270.073 97.6938C267.127 96.7913 264.657 94.0113 264.565 90.8409C264.52 89.3512 264.971 87.8614 264.766 86.3861C264.653 85.5439 264.33 84.7466 263.828 84.0719C263.058 83.0334 261.896 82.3363 261.269 81.1792C260.208 79.244 261.014 76.7302 260.25 74.6532C260.015 74.0168 259.544 73.3804 258.886 73.3312C258.228 73.2821 257.665 73.8461 257.035 74.0978C255.725 74.6243 254.308 73.7304 253.213 72.8134C252.118 71.8964 250.883 70.8551 249.489 71.0604C248.568 71.1935 247.842 71.8415 246.994 72.1799C246.367 72.4287 245.095 72.6514 244.547 72.1047C243.387 71.0026 246.073 68.1475 246.557 67.1177Z" fill="#591D4B"/>
<path opacity="0.1" d="M275.004 100.497C274.533 99.5419 274.225 98.4427 273.424 97.7658C272.708 97.1583 271.744 97.0108 270.848 96.7389C267.905 95.8392 265.436 93.0593 265.34 89.8889C265.296 88.3991 265.746 86.9065 265.545 85.4312C265.427 84.5944 265.105 83.8026 264.607 83.1315C263.834 82.093 262.672 81.3959 262.047 80.2388C260.986 78.3064 261.793 75.7926 261.025 73.7128C260.793 73.0793 260.32 72.4429 259.664 72.3908C259.009 72.3387 258.441 72.9086 257.814 73.1603C256.503 73.6867 255.083 72.79 253.991 71.8759C252.899 70.9618 251.659 69.9175 250.267 70.12C249.346 70.256 248.618 70.9039 247.772 71.2395C247.145 71.4883 245.871 71.7139 245.322 71.1672C244.168 70.0101 246.854 67.1607 247.335 66.1367C247.736 65.292 247.935 64.3519 248.416 63.5535C248.441 63.5101 248.469 63.4667 248.497 63.4233C248.137 63.7317 247.826 64.0968 247.576 64.5052C247.097 65.3036 246.899 66.2409 246.498 67.0884C246.014 68.1124 243.328 70.9705 244.485 72.1189C245.045 72.6685 246.305 72.4429 246.932 72.1941C247.772 71.8556 248.506 71.2077 249.427 71.0746C250.827 70.8692 252.059 71.9135 253.151 72.8276C254.243 73.7417 255.671 74.6384 256.976 74.112C257.604 73.8603 258.152 73.2933 258.824 73.3454C259.496 73.3975 259.944 74.031 260.188 74.6674C260.953 76.7444 260.146 79.2581 261.207 81.1934C261.835 82.3302 262.997 83.0418 263.767 84.0861C264.268 84.7607 264.591 85.5581 264.705 86.4003C264.909 87.8756 264.458 89.3653 264.503 90.8551C264.596 94.0371 267.065 96.8054 270.011 97.7079C270.899 97.9799 271.868 98.1245 272.584 98.732C273.388 99.4118 273.704 100.511 274.164 101.466C275.681 104.552 279.369 106.311 282.629 105.498L281.979 104.74C279.154 104.784 276.295 103.123 275.004 100.497Z" fill="black"/>
<path opacity="0.1" d="M255.699 87.2942C255.333 87.8727 254.283 90.8349 253.406 93.421C252.586 93.0912 251.841 90.9882 251.841 90.9882L256.215 84.5605C256.663 85.1969 256.369 86.2528 255.699 87.2942Z" fill="black"/>
<path d="M255.867 87.1209C255.501 87.6994 254.45 90.6616 253.574 93.2477C252.754 92.9208 252.009 90.8149 252.009 90.8149L256.383 84.3901C256.831 85.0236 256.537 86.0824 255.867 87.1209Z" fill="#DCE7FF"/>
<path d="M230.436 116.673L228.011 108.773C227.983 108.68 227.972 108.583 227.98 108.486C227.988 108.389 228.014 108.295 228.057 108.209C228.1 108.122 228.16 108.046 228.231 107.983C228.303 107.921 228.387 107.873 228.476 107.844C228.657 107.786 228.852 107.804 229.02 107.894C229.188 107.984 229.314 108.138 229.372 108.324L231.797 116.216L231.556 117.868L230.436 116.673Z" fill="#BE8B87"/>
<path opacity="0.1" d="M228.241 108.079C228.422 108.02 228.618 108.037 228.787 108.127C228.955 108.217 229.082 108.372 229.14 108.559L231.565 116.45L231.383 117.688L231.559 117.879L231.8 116.227L229.361 108.336C229.303 108.15 229.177 107.995 229.009 107.905C228.841 107.816 228.646 107.798 228.465 107.856C228.313 107.907 228.182 108.009 228.093 108.145C228.14 108.119 228.19 108.097 228.241 108.079Z" fill="white"/>
<path d="M230.437 116.673L231.797 116.228L231.599 117.581L231.557 117.879L231.159 117.451L230.437 116.673Z" fill="#EFC8C4"/>
<path d="M231.159 117.451C231.183 117.42 231.212 117.394 231.246 117.376C231.265 117.363 231.288 117.356 231.312 117.356C231.335 117.356 231.358 117.363 231.377 117.376C231.396 117.399 231.412 117.426 231.425 117.454C231.443 117.486 231.469 117.513 231.499 117.533C231.529 117.554 231.563 117.567 231.599 117.572L231.557 117.862L231.159 117.451Z" fill="#727A9C"/>
<path d="M227.998 111.579C227.998 111.579 232.861 111.55 231.716 113.687C230.571 115.825 228.782 116.083 228.782 116.083L227.998 111.579Z" fill="#FFB0B1"/>
<path d="M197.747 15.6416H197.537C189.182 15.6416 181.792 20.2092 177.541 26.9493C173.291 20.2092 165.901 15.6416 157.546 15.6416H157.336C151.065 15.7033 145.071 18.3191 140.657 22.9205C136.242 27.5219 133.764 33.737 133.761 40.2153C133.761 48.26 137.172 59.6747 143.822 69.0674C156.493 86.9647 177.541 102.623 177.541 102.623C177.541 102.623 198.59 86.9676 211.258 69.0674C217.911 59.6747 221.319 48.26 221.319 40.2153C221.316 33.7375 218.838 27.5228 214.424 22.9215C210.011 18.3202 204.018 15.7041 197.747 15.6416ZM194.743 70.4443C193.791 70.4406 192.863 70.1397 192.08 69.5811C191.297 69.0225 190.696 68.2323 190.355 67.3144H185.359C185.031 67.3123 184.71 67.2041 184.444 67.0049C184.177 66.8058 183.978 66.5256 183.873 66.2036L182.338 61.4277L177.483 78.9547C177.388 79.2921 177.19 79.5887 176.918 79.8C176.647 80.0112 176.316 80.1257 175.976 80.1263H175.878C175.523 80.1086 175.185 79.9656 174.92 79.7213C174.655 79.477 174.479 79.1462 174.422 78.784L169.418 47.693L165.761 66.0908C165.677 66.4403 165.483 66.7507 165.208 66.9725C164.933 67.1942 164.595 67.3146 164.246 67.3144H157.21C156.999 67.3236 156.788 67.2886 156.59 67.2116C156.393 67.1346 156.213 67.0171 156.06 66.8661C155.908 66.7152 155.786 66.534 155.704 66.3334C155.621 66.1328 155.578 65.9169 155.578 65.6988C155.578 65.4807 155.621 65.2648 155.704 65.0642C155.786 64.8636 155.908 64.6824 156.06 64.5315C156.213 64.3805 156.393 64.263 156.59 64.186C156.788 64.1089 156.999 64.074 157.21 64.0832H163.014L168.195 39.3475C168.28 38.9818 168.485 38.6579 168.775 38.4313C169.066 38.2047 169.424 38.0894 169.788 38.1051C170.151 38.1209 170.499 38.2666 170.77 38.5175C171.041 38.7684 171.22 39.1088 171.275 39.4806L176.385 71.1964L180.736 55.5149C180.827 55.1847 181.019 54.8935 181.283 54.685C181.546 54.4765 181.869 54.3617 182.201 54.3579H182.232C182.561 54.358 182.881 54.4654 183.148 54.6649C183.414 54.8643 183.613 55.1456 183.716 55.4687L186.491 64.0919H190.293C190.564 63.2433 191.056 62.4885 191.715 61.9106C192.375 61.3327 193.176 60.9542 194.03 60.817C194.885 60.6798 195.759 60.7891 196.557 61.1329C197.356 61.4768 198.046 62.0417 198.553 62.7654C199.06 63.4892 199.364 64.3435 199.43 65.2342C199.497 66.1248 199.324 67.0172 198.931 67.8128C198.537 68.6084 197.939 69.2762 197.201 69.7426C196.464 70.209 195.616 70.4559 194.751 70.4559L194.743 70.4443Z" fill="#27B4EF"/>
</g>
<defs>
<linearGradient id="paint0_linear_1_252" x1="99.8735" y1="224.916" x2="99.8735" y2="46.9149" gradientUnits="userSpaceOnUse">
<stop stop-color="#808080" stop-opacity="0.25"/>
<stop offset="0.54" stop-color="#808080" stop-opacity="0.12"/>
<stop offset="1" stop-color="#808080" stop-opacity="0.1"/>
</linearGradient>
<linearGradient id="paint1_linear_1_252" x1="62503.9" y1="134305" x2="62503.9" y2="42935.4" gradientUnits="userSpaceOnUse">
<stop stop-color="#808080" stop-opacity="0.25"/>
<stop offset="0.54" stop-color="#808080" stop-opacity="0.12"/>
<stop offset="1" stop-color="#808080" stop-opacity="0.1"/>
</linearGradient>
<clipPath id="clip0_1_252">
<rect width="309.429" height="226.425" fill="white" transform="translate(0.095459 0.76709)"/>
</clipPath>
</defs>
</svg>
