<svg width="17" height="21" viewBox="0 0 17 21" fill="none" xmlns="http://www.w3.org/2000/svg">
<path fill-rule="evenodd" clip-rule="evenodd" d="M8.08768 0.745605C7.29261 0.745605 5.96403 1.06534 4.71381 1.42128C3.43478 1.78325 2.14538 2.21158 1.38718 2.47099C1.07018 2.58061 0.789141 2.78164 0.576346 3.05099C0.36355 3.32033 0.227632 3.64708 0.184206 3.99367C-0.502552 9.39546 1.09105 13.3988 3.02457 16.0472C3.84451 17.1802 4.82216 18.1778 5.92486 19.0069C6.36964 19.3363 6.78215 19.5885 7.13244 19.761C7.45508 19.9203 7.80192 20.0506 8.08768 20.0506C8.37345 20.0506 8.71913 19.9203 9.04292 19.761C9.46521 19.5461 9.86921 19.2938 10.2505 19.0069C11.3532 18.1779 12.3309 17.1802 13.1508 16.0472C15.0843 13.3988 16.6779 9.39546 15.9912 3.99367C15.9478 3.64691 15.8119 3.31998 15.5991 3.05042C15.3863 2.78087 15.1053 2.57962 14.7882 2.46978C13.6875 2.0919 12.5783 1.7419 11.4616 1.42007C10.2113 1.06655 8.88275 0.745605 8.08768 0.745605ZM8.08768 6.77842C8.49586 6.77778 8.89109 6.92843 9.20336 7.20369C9.51563 7.47894 9.72479 7.86103 9.7938 8.28229C9.8628 8.70355 9.7872 9.13679 9.58038 9.50528C9.37356 9.87376 9.04887 10.1537 8.66382 10.2956L9.10745 12.6966C9.12359 12.7839 9.12109 12.8739 9.10012 12.9601C9.07915 13.0463 9.04024 13.1266 8.98618 13.1952C8.93211 13.2638 8.86422 13.3191 8.78738 13.357C8.71053 13.3949 8.62663 13.4145 8.54168 13.4145H7.63368C7.54883 13.4144 7.46506 13.3946 7.38836 13.3566C7.31166 13.3186 7.24391 13.2633 7.18997 13.1947C7.13603 13.1262 7.09722 13.0459 7.07632 12.9598C7.05542 12.8737 7.05295 12.7838 7.06907 12.6966L7.51154 10.2956C7.12649 10.1537 6.8018 9.87376 6.59498 9.50528C6.38816 9.13679 6.31256 8.70355 6.38157 8.28229C6.45057 7.86103 6.65974 7.47894 6.972 7.20369C7.28427 6.92843 7.6795 6.77778 8.08768 6.77842Z" fill="#27B4EF"/>
</svg>
