<svg width="18" height="18" viewBox="0 0 18 18" fill="none" xmlns="http://www.w3.org/2000/svg">
<path d="M16.6555 17.7526C7.64896 17.7659 0.813018 10.5228 0.82252 1.17374C0.82252 0.562407 1.29549 0.0649414 1.87826 0.0649414H4.66543C5.18802 0.0649414 5.63249 0.467336 5.70956 1.00902C5.89336 2.30802 6.25424 3.57268 6.78114 4.76434L6.88988 5.00976C6.96292 5.1749 6.97864 5.36157 6.93431 5.53755C6.88998 5.71353 6.78839 5.86779 6.64706 5.97373C5.78346 6.61934 5.45407 7.91827 6.12658 8.93089C6.97011 10.2022 8.03325 11.3165 9.24735 12.1998C10.2155 12.9029 11.456 12.558 12.0715 11.6548C12.1725 11.5064 12.32 11.3996 12.4883 11.353C12.6566 11.3063 12.8352 11.3228 12.9931 11.3994L13.2265 11.5122C14.3645 12.0649 15.5723 12.443 16.8128 12.6354C17.3301 12.7161 17.7144 13.1815 17.7144 13.7298V16.6471C17.7144 16.7924 17.6871 16.9363 17.634 17.0705C17.5808 17.2046 17.503 17.3266 17.4048 17.4292C17.3067 17.5319 17.1902 17.6133 17.062 17.6688C16.9337 17.7243 16.7963 17.7528 16.6576 17.7526H16.6555Z" fill="#27B4EF"/>
</svg>
