<svg width="21" height="21" viewBox="0 0 21 21" fill="none" xmlns="http://www.w3.org/2000/svg">
<path d="M11.7819 0.580292C11.0604 -0.175201 9.89102 -0.175201 9.16952 0.580292L5.55827 4.36297L10.4757 9.51335L15.3943 4.36297L11.7806 0.580292H11.7819ZM16.2726 5.28389L11.3564 10.4343L16.2751 15.5846L19.8876 11.8007C20.6091 11.0452 20.6091 9.82206 19.8876 9.06787L16.2751 5.28389H16.2726ZM15.3943 16.5043L10.4757 11.3565L5.55703 16.5069L9.17076 20.2895C9.89226 21.045 11.0604 21.045 11.7806 20.2895L15.3943 16.5069V16.5043ZM4.67879 15.5846L9.59495 10.4343L4.67754 5.28389L1.06505 9.06787C0.34355 9.82336 0.34355 11.0465 1.06505 11.8007L4.67754 15.5846H4.67879Z" fill="#27B4EF"/>
</svg>
